<svg width="50" height="50" viewBox="0 0 50 50" fill="none" xmlns="http://www.w3.org/2000/svg">
<g clip-path="url(#clip0_911_238)">
<path d="M12.8122 16.9269L11.1256 20.986L9.28942 16.9268H6.99955V22.5922L4.6134 16.9269H2.52897L0.0166016 22.9105H1.54032L2.08493 21.5759H5.00609L5.54519 22.9105H8.39872V18.2201L10.4384 22.9105H11.6703L13.7046 18.2242L13.7099 22.9105H15.1481V16.9269H12.8122V16.9269ZM4.49936 20.3287H2.58429L3.53917 17.9433L4.49936 20.3286V20.3287Z" fill="url(#paint0_linear_911_238)"/>
<path d="M20.8808 22.9109H16.1936V16.9269H20.8808V18.1731H17.5968V19.2519H20.8019V20.4782H17.5968V21.6731H20.8808V22.9109Z" fill="url(#paint1_linear_911_238)"/>
<path d="M27.4885 18.5384C27.4885 17.871 27.2223 17.4808 26.7785 17.2135C26.3249 16.9462 25.7967 16.9269 25.0796 16.9269H21.8527V22.9105H23.2555V20.7341H24.7616C25.2667 20.7341 25.5792 20.7798 25.7842 20.9902C26.0394 21.2781 26.0056 21.7959 26.0056 22.156L26.011 22.9106H27.4261V21.7351C27.4261 21.2007 27.3919 20.9348 27.1938 20.6372C27.069 20.4629 26.8068 20.2525 26.4997 20.1333C26.8638 19.9852 27.4885 19.4924 27.4885 18.5384V18.5384ZM25.6537 19.3788C25.461 19.4981 25.2329 19.502 24.9597 19.502H23.2554V18.1729H24.9829C25.2274 18.1729 25.4826 18.1842 25.6482 18.2809C25.8303 18.3681 25.9429 18.5536 25.9429 18.8099C25.9429 19.0714 25.8357 19.2818 25.6537 19.3788V19.3788Z" fill="url(#paint2_linear_911_238)"/>
<path d="M29.7342 16.9269H28.3026V22.9105H29.7342V16.9269Z" fill="url(#paint3_linear_911_238)"/>
<path d="M44.9051 16.9276V21.0948L42.4388 16.9276H40.3028V22.5872L37.9274 16.9276H35.8252L33.8478 21.6331H33.2177C32.8484 21.6331 32.4559 21.5613 32.2399 21.3246C31.9792 21.0226 31.854 20.5604 31.854 19.9194C31.854 19.2921 32.0183 18.816 32.2574 18.564C32.5359 18.2872 32.825 18.2095 33.3371 18.2095H34.6667V16.9274H33.3085C32.3416 16.9274 31.6313 17.1477 31.1778 17.6252C30.5748 18.2662 30.4215 19.0775 30.4215 19.9649C30.4215 21.053 30.678 21.7411 31.171 22.2493C31.6601 22.7573 32.5235 22.911 33.2055 22.911H34.8471L35.3768 21.5764H38.2912L38.8372 22.911H41.6945V18.4201L44.3538 22.911H46.342L46.3421 22.9111V16.9276H44.9051V16.9276ZM37.8128 20.3291H35.8763L36.8419 17.9436L37.8128 20.3291V20.3291Z" fill="url(#paint4_linear_911_238)"/>
<path d="M24.8179 27.2186H20.3349L18.5503 29.1803L16.8242 27.2186H11.1814V33.2036H16.7386L18.534 31.2223L20.2616 33.2035H22.9885V31.1962H24.7392C25.9656 31.1962 27.1823 30.8529 27.1823 29.1903C27.1822 27.5328 25.9313 27.2186 24.8179 27.2186V27.2186ZM16.0282 31.9564H12.5788V30.7655H15.6588V29.5444H12.5788V28.4563H16.0962L17.6308 30.2004L16.0282 31.9564ZM21.591 32.6593L19.437 30.2214L21.591 27.8609V32.6593V32.6593ZM24.8014 29.9805H22.9883V28.4564H24.8177C25.3242 28.4564 25.6758 28.6669 25.6758 29.1903C25.6758 29.7079 25.3405 29.9805 24.8014 29.9805V29.9805Z" fill="url(#paint5_linear_911_238)"/>
<path d="M34.2673 27.2186H38.95V28.4564H35.6647V29.5442H38.8699V30.7654H35.6647V31.9564L38.95 31.9615V33.2039H34.2673V27.2186Z" fill="url(#paint6_linear_911_238)"/>
<path d="M32.4949 30.4224C32.8642 30.273 33.4892 29.7855 33.4893 28.8303C33.4893 28.1474 33.2108 27.7739 32.768 27.5011C32.3076 27.2508 31.7902 27.2188 31.0799 27.2188H27.8408V33.2038H29.2506V31.0179H30.7499C31.2618 31.0179 31.5743 31.0691 31.7793 31.2835C32.0401 31.5619 32.0061 32.0949 32.0061 32.4551V33.2038H33.4146V32.0174C33.409 31.4899 33.3803 31.2171 33.1822 30.9249C33.0624 30.7506 32.8071 30.5399 32.4949 30.4224V30.4224ZM31.6476 29.6776C31.4599 29.7911 31.2277 29.8009 30.9547 29.8009H29.2503V28.4566H30.9779C31.2277 28.4566 31.4777 28.462 31.6475 28.5648C31.8293 28.6617 31.938 28.847 31.938 29.1032C31.9381 29.3593 31.8293 29.5655 31.6476 29.6776V29.6776Z" fill="url(#paint7_linear_911_238)"/>
<path d="M44.3077 30.0468C44.5809 30.335 44.7274 30.6989 44.7274 31.3149C44.7274 32.6024 43.9381 33.2034 42.5233 33.2034H39.7907V31.92H42.5123C42.7785 31.92 42.9672 31.8842 43.0853 31.7719C43.1819 31.6792 43.251 31.5448 43.251 31.3815C43.251 31.2071 43.1762 31.0687 43.0799 30.9857C42.9726 30.8943 42.8246 30.8529 42.5803 30.8529C41.2682 30.8072 39.6251 30.8943 39.6251 29.0003C39.6251 28.1323 40.1601 27.2185 41.631 27.2185H44.4436V28.4924H41.87C41.6149 28.4924 41.449 28.5021 41.3078 28.6005C41.1542 28.6974 41.0972 28.8413 41.0972 29.0311C41.0972 29.2569 41.2276 29.4106 41.4042 29.4769C41.5522 29.5293 41.7112 29.5448 41.9503 29.5448L42.7054 29.5655C43.4672 29.5844 43.9899 29.7188 44.3077 30.0468V30.0468Z" fill="url(#paint8_linear_911_238)"/>
<path d="M46.7788 28.659C46.9217 28.5602 47.0913 28.5505 47.3466 28.5505H49.9036V11.7717C49.9036 10.2618 48.7122 9.03845 47.2426 9.03845H2.66051C1.19147 9.03845 -0.000512664 10.2621 -0.000512664 11.7717V19.7402L1.69853 15.7604H5.35731L5.82853 16.749V15.7605H10.1186L11.0571 17.9224L11.971 15.7605H25.5915C26.2105 15.7605 26.7674 15.8785 27.176 16.2492V15.7605H30.9041V16.2492C31.5463 15.8895 32.3411 15.7604 33.2454 15.7604H38.6478L39.149 16.749V15.7604H43.1485L43.6944 16.749V15.7605H47.592V24.131H43.6537L42.9094 22.8648V24.131H37.9946L37.4608 22.798H36.2507L35.7049 24.131H33.1544C32.1537 24.131 31.393 23.8895 30.904 23.6216V24.131H24.8417V22.2316C24.8417 21.9635 24.7953 21.9485 24.6365 21.9429H24.4097L24.4151 24.1311H12.6933V23.0967L12.2723 24.1352H9.82385L9.40282 23.1118V24.131H4.68635L4.14724 22.7979H2.93718L2.39667 24.131H-0.000448561V24.131H-0.000640869V38.4849C-0.000640869 39.9947 1.19071 41.218 2.66038 41.218H47.2424C48.7115 41.218 49.9035 39.9943 49.9035 38.4848V32.5082L49.9034 32.5083V34.0687C49.3412 34.3463 48.6025 34.4547 47.846 34.4547H44.2106V33.9188C43.7895 34.2643 43.0288 34.4547 42.3012 34.4547H30.8403V32.519C30.8403 32.2816 30.8174 32.2719 30.5853 32.2719H30.4032V34.4549H26.6305V32.1944C25.999 32.4735 25.2831 32.4985 24.6763 32.4889H24.2265V34.4593L19.6525 34.4551L18.528 33.153L17.3342 34.4551H9.91365V26.0788H17.4765L18.5616 27.3609L19.72 26.0788H24.7829C25.3681 26.0788 26.3284 26.1415 26.7602 26.5691V26.0788H31.2839C31.709 26.0788 32.6301 26.1665 33.1759 26.5691V26.0788H40.0342V26.5691C40.3752 26.2345 41.096 26.0788 41.7103 26.0788H45.5508V26.5691C45.9539 26.2709 46.5231 26.0788 47.3067 26.0788H49.9033V27.2733H47.1087C45.6363 27.2733 45.0956 28.1897 45.0956 29.0604C45.0956 30.9601 46.7392 30.8727 48.0565 30.9185C48.3008 30.9185 48.4489 30.9601 48.5508 31.0518C48.6539 31.135 48.7222 31.2738 48.7222 31.4487C48.7233 31.5974 48.6629 31.7396 48.5563 31.8402C48.4435 31.9529 48.2562 31.9887 47.9885 31.9887H45.2901V33.276H47.9996C48.8985 33.276 49.5626 33.0177 49.9034 32.5081V32.5081H49.9035V30.2586C49.8644 30.2071 49.8301 30.1558 49.7733 30.11C49.461 29.7811 48.9489 29.6462 48.1816 29.6268L47.4212 29.6061C47.1875 29.6061 47.0285 29.5906 46.8805 29.538C46.6987 29.4714 46.5738 29.3173 46.5738 29.0909C46.5738 28.9004 46.6307 28.7562 46.7787 28.659L46.7788 28.659Z" fill="url(#paint9_linear_911_238)"/>
</g>
<defs>
<linearGradient id="paint0_linear_911_238" x1="7.58234" y1="16.9268" x2="7.58234" y2="22.9105" gradientUnits="userSpaceOnUse">
<stop stop-color="white"/>
<stop offset="1" stop-color="white" stop-opacity="0.75"/>
</linearGradient>
<linearGradient id="paint1_linear_911_238" x1="18.5372" y1="16.9269" x2="18.5372" y2="22.9109" gradientUnits="userSpaceOnUse">
<stop stop-color="white"/>
<stop offset="1" stop-color="white" stop-opacity="0.75"/>
</linearGradient>
<linearGradient id="paint2_linear_911_238" x1="24.6706" y1="16.9269" x2="24.6706" y2="22.9106" gradientUnits="userSpaceOnUse">
<stop stop-color="white"/>
<stop offset="1" stop-color="white" stop-opacity="0.75"/>
</linearGradient>
<linearGradient id="paint3_linear_911_238" x1="29.0184" y1="16.9269" x2="29.0184" y2="22.9105" gradientUnits="userSpaceOnUse">
<stop stop-color="white"/>
<stop offset="1" stop-color="white" stop-opacity="0.75"/>
</linearGradient>
<linearGradient id="paint4_linear_911_238" x1="38.3818" y1="16.9274" x2="38.3818" y2="22.9111" gradientUnits="userSpaceOnUse">
<stop stop-color="white"/>
<stop offset="1" stop-color="white" stop-opacity="0.75"/>
</linearGradient>
<linearGradient id="paint5_linear_911_238" x1="19.1818" y1="27.2186" x2="19.1818" y2="33.2036" gradientUnits="userSpaceOnUse">
<stop stop-color="white"/>
<stop offset="1" stop-color="white" stop-opacity="0.75"/>
</linearGradient>
<linearGradient id="paint6_linear_911_238" x1="36.6086" y1="27.2186" x2="36.6086" y2="33.2039" gradientUnits="userSpaceOnUse">
<stop stop-color="white"/>
<stop offset="1" stop-color="white" stop-opacity="0.75"/>
</linearGradient>
<linearGradient id="paint7_linear_911_238" x1="30.6651" y1="27.2188" x2="30.6651" y2="33.2038" gradientUnits="userSpaceOnUse">
<stop stop-color="white"/>
<stop offset="1" stop-color="white" stop-opacity="0.75"/>
</linearGradient>
<linearGradient id="paint8_linear_911_238" x1="42.1762" y1="27.2185" x2="42.1762" y2="33.2034" gradientUnits="userSpaceOnUse">
<stop stop-color="white"/>
<stop offset="1" stop-color="white" stop-opacity="0.75"/>
</linearGradient>
<linearGradient id="paint9_linear_911_238" x1="24.9515" y1="9.03845" x2="24.9515" y2="41.218" gradientUnits="userSpaceOnUse">
<stop stop-color="white"/>
<stop offset="1" stop-color="white" stop-opacity="0.75"/>
</linearGradient>
<clipPath id="clip0_911_238">
<rect width="50" height="50" fill="white"/>
</clipPath>
</defs>
</svg>
