<svg width="50" height="23" viewBox="0 0 50 23" fill="none" xmlns="http://www.w3.org/2000/svg">
<g clip-path="url(#clip0_911_207)">
<path d="M13.7281 0H8.5472C6.2579 0.109668 4.38664 1.04388 3.84633 2.97037C3.56459 3.97507 3.40954 5.07851 3.18924 6.12C2.06927 11.4157 1.07618 16.8573 0.00488281 22.0472H40.3405C43.4588 22.0472 45.6001 21.3796 46.1785 18.8719C46.4473 17.707 46.7048 16.3877 46.962 15.1079C47.9645 10.1178 48.9679 5.12812 49.9949 0H13.7281Z" fill="url(#paint0_linear_911_207)"/>
<path d="M13.3236 7.83559C13.5403 7.68436 13.8194 6.99564 13.5006 6.70889C13.3996 6.61811 13.2307 6.59176 12.9951 6.63213C12.7766 6.66952 12.6509 6.74478 12.5655 6.8626C12.4283 7.05201 12.3024 7.62341 12.5149 7.83569C12.722 8.0423 13.1858 7.93174 13.3236 7.83559V7.83559ZM10.2404 6.70889C10.0851 7.7295 9.91025 8.73023 9.73489 9.73046C8.60903 9.74249 7.45952 9.78674 6.3736 9.70481C6.5787 8.72625 6.7258 7.68884 6.92961 6.70889H5.71652C5.28229 9.20509 4.88721 11.7412 4.40234 14.1861H5.64076C5.83496 12.932 6.0167 11.665 6.27253 10.4731C7.32842 10.4467 8.59392 10.4008 9.6086 10.4987C9.39938 11.7379 9.14659 12.9326 8.95151 14.1861H10.1899C10.5879 11.653 11.0071 9.14156 11.5042 6.70889H10.2404V6.70889ZM27.7545 8.85988C26.791 8.46556 26.0334 9.13191 25.6822 9.75611C25.7619 9.47842 25.7946 9.15319 25.8592 8.85988H24.8988C24.664 10.7047 24.318 12.4368 23.989 14.1861H25.0758C25.2281 13.1478 25.2939 11.748 25.6317 10.7548C25.9018 9.96103 26.6085 9.28483 27.6283 9.65371C27.6425 9.36089 27.7252 9.13738 27.7545 8.85988V8.85988ZM28.361 12.9314C28.2608 12.6691 28.235 12.2362 28.26 11.907C28.3161 11.1672 28.5823 10.2664 28.9929 9.85852C29.5596 9.29567 30.6784 9.38883 31.5708 9.70491C31.5984 9.40017 31.6589 9.12834 31.6972 8.83433C30.2337 8.59213 28.845 8.74286 28.1086 9.52574C27.3876 10.2921 26.9152 12.0536 27.2491 13.1619C27.6401 14.4588 29.3933 14.5293 30.8127 14.0326C30.8755 13.7719 30.9088 13.4812 30.9643 13.2132C30.1886 13.6213 28.7057 13.8335 28.361 12.9314V12.9314ZM40.5679 8.88544C39.6074 8.39884 38.8077 9.21533 38.4956 9.70481C38.5845 9.45366 38.5896 9.1173 38.6724 8.85978H37.7121C37.4531 10.6886 37.1411 12.4636 36.7771 14.186H37.8891C37.8961 13.48 38.033 12.9578 38.1417 12.2656C38.3741 10.7874 38.7154 9.16632 40.4165 9.65361C40.4727 9.40365 40.4962 9.12008 40.5679 8.88544ZM12.2116 8.85988C12.1822 8.86416 12.1841 8.90035 12.1863 8.93664C11.9469 10.7511 11.6227 12.4799 11.2765 14.186H12.3632C12.6244 12.3593 12.9235 10.5713 13.2983 8.85978L12.2116 8.85988V8.85988ZM21.7648 8.75747C20.9795 8.81882 20.3158 9.0477 19.8441 9.5513C19.2655 10.1688 18.797 11.5343 18.9343 12.7778C19.1302 14.5518 21.3101 14.488 23.0537 14.0581C23.0835 13.7467 23.1579 13.4805 23.2054 13.1874C22.4871 13.4598 21.24 13.8399 20.5011 13.3668C19.9433 13.0094 19.94 12.1047 20.122 11.3182C21.2939 11.2804 22.5119 11.2876 23.6854 11.3182C23.7598 10.7608 23.9728 10.1531 23.7865 9.6026C23.5408 8.87579 22.6605 8.68748 21.7648 8.75747ZM22.801 10.7036H20.2483C20.3291 10.109 20.8571 9.45545 21.6889 9.42323C22.4718 9.39291 23.0324 9.71445 22.801 10.7036V10.7036ZM17.6453 8.85988C16.7256 8.5098 15.6046 8.92769 15.1186 9.3252C15.1203 9.3427 15.107 9.34509 15.0927 9.34638C15.1009 9.33932 15.1099 9.33226 15.1186 9.3252C15.1185 9.32373 15.1183 9.32227 15.1181 9.32083C15.1262 9.14991 15.1856 9.0308 15.1938 8.85988H14.2587C13.8691 11.4866 13.407 14.0399 12.9193 16.5674H14.006C14.1634 15.5831 14.2672 14.5446 14.4863 13.6227C14.7345 14.5923 16.355 14.4071 17.0389 14.0325C18.4497 13.2593 19.538 9.58013 17.6453 8.85988V8.85988ZM16.7861 13.1874C16.2047 13.8113 14.7753 13.802 14.6631 12.752C14.6144 12.2953 14.7823 11.8163 14.8655 11.3438C14.9494 10.8654 15.0099 10.4065 15.0928 9.98659C15.6654 9.27807 17.3483 9.19247 17.519 10.3707C17.6671 11.3936 17.2675 12.6707 16.7861 13.1874V13.1874ZM44.6115 6.55528C44.5184 7.3827 44.3938 8.17841 44.2325 8.93664C41.5668 8.08167 39.932 10.0689 39.9615 12.5217C39.9672 12.996 40.0478 13.4664 40.3404 13.802C40.8452 14.38 42.2899 14.5185 43.0195 14.0324C43.1606 13.9383 43.305 13.7671 43.3985 13.6484C43.4689 13.559 43.5804 13.3248 43.6007 13.3922C43.5623 13.652 43.505 13.8929 43.4998 14.186H44.4854C44.6755 11.4251 45.2627 9.06699 45.6985 6.55518H44.6116V6.55528H44.6115ZM42.1854 13.5971C41.4538 13.613 41.0901 13.1542 41.0733 12.3936C41.0441 11.0615 41.6209 9.58152 42.7919 9.44879C43.3372 9.38704 43.7319 9.5155 44.1314 9.65371C43.7646 11.1501 43.897 13.5599 42.1854 13.5971V13.5971ZM32.8091 8.85988C32.7556 9.16413 32.6734 9.43944 32.6069 9.73046C33.2482 9.5675 35.2451 9.06798 35.4375 9.93528C35.5014 10.2234 35.3912 10.5296 35.3111 10.7548C33.5055 10.5815 32.0337 10.8854 31.6465 12.1887C31.3872 13.0616 31.6756 13.9207 32.2278 14.1605C33.2915 14.6222 34.5852 14.0933 35.0331 13.3668C34.9866 13.6182 34.9425 13.8725 34.9575 14.1861H35.8924C35.9025 13.2787 36.0328 12.5442 36.1705 11.7277C36.2878 11.0325 36.5087 10.3441 36.4738 9.73046C36.3933 8.32507 34.0954 8.8222 32.8091 8.85988V8.85988ZM34.5782 13.1618C34.0181 13.7173 32.4461 13.8751 32.6069 12.5472C32.7404 11.4444 33.9256 11.21 35.2098 11.3692C35.1145 11.9725 35.0049 12.7385 34.5782 13.1618V13.1618Z" fill="#973A3A"/>
</g>
<defs>
<linearGradient id="paint0_linear_911_207" x1="24.9999" y1="0" x2="24.9999" y2="22.0472" gradientUnits="userSpaceOnUse">
<stop stop-color="white"/>
<stop offset="1" stop-color="white" stop-opacity="0.75"/>
</linearGradient>
<clipPath id="clip0_911_207">
<rect width="50" height="22.0472" fill="white"/>
</clipPath>
</defs>
</svg>
