<svg width="406" height="260" viewBox="0 0 406 260" fill="none" xmlns="http://www.w3.org/2000/svg">
<g filter="url(#filter0_b_47_130)">
<rect x="2" y="1.45056" width="402" height="256.833" rx="15.1928" fill="url(#paint0_linear_47_130)"/>
<rect x="1.36697" y="0.817527" width="403.266" height="258.099" rx="15.8259" stroke="url(#paint1_radial_47_130)" stroke-width="1.26607"/>
<rect x="1.36697" y="0.817527" width="403.266" height="258.099" rx="15.8259" stroke="url(#paint2_linear_47_130)" stroke-opacity="0.4" stroke-width="1.26607"/>
<rect x="1.36697" y="0.817527" width="403.266" height="258.099" rx="15.8259" stroke="url(#paint3_linear_47_130)" stroke-width="1.26607"/>
</g>
<mask id="mask0_47_130" style="mask-type:alpha" maskUnits="userSpaceOnUse" x="2" y="1" width="402" height="258">
<rect x="2" y="1.45056" width="402" height="256.833" rx="15.4011" fill="#16084C"/>
</mask>
<g mask="url(#mask0_47_130)">
<g filter="url(#filter1_f_47_130)">
<path d="M506.195 -149.865C531.167 -98.3273 464.486 -13.6154 357.259 39.3443C250.032 92.3041 142.864 93.4569 117.892 41.9193C92.9206 -9.61827 159.602 -94.3301 266.829 -147.29C374.056 -200.25 481.224 -201.402 506.195 -149.865Z" fill="#994343"/>
</g>
<g filter="url(#filter2_f_47_130)">
<path d="M447.7 -188.111C472.672 -136.573 405.991 -51.8613 298.764 1.0984C191.537 54.0581 84.3685 55.211 59.3969 3.6734C34.4253 -47.8642 101.106 -132.576 208.333 -185.536C315.56 -238.495 422.728 -239.648 447.7 -188.111Z" fill="#F22D2D"/>
</g>
</g>
<path fill-rule="evenodd" clip-rule="evenodd" d="M23.3845 37.4068L23.3807 37.4119L23.3771 37.4171C23.1722 37.7072 22.7132 37.7924 22.3542 37.5389C22.0669 37.336 21.9805 36.8838 22.2252 36.5265C22.5903 36.0611 22.8554 35.5171 23.0295 34.9852C23.2108 34.4316 23.2951 33.8024 23.2918 33.1854C23.2886 32.5683 23.1976 31.9401 23.0104 31.3884C22.8306 30.8584 22.5597 30.3173 22.1897 29.8558C21.9412 29.5011 22.0228 29.048 22.3079 28.842C22.6642 28.5847 23.124 28.6651 23.332 28.953L23.3357 28.9581L23.3396 28.9632C23.8001 29.5705 24.1778 30.2452 24.4035 30.9071C24.6411 31.6858 24.7925 32.439 24.7964 33.1774C24.8005 33.9543 24.7263 34.6897 24.4412 35.4136C24.1307 36.202 23.83 36.8062 23.3845 37.4068ZM26.7142 38.8488L26.7232 38.8361L26.7314 38.8228C27.7521 37.1875 28.3408 35.2143 28.3299 33.1585C28.3189 31.1033 27.7095 29.1369 26.672 27.5128C26.4471 27.1562 26.5481 26.7346 26.9271 26.4609C27.1817 26.277 27.6595 26.3421 27.943 26.7221C29.1145 28.5807 29.8221 30.8274 29.8344 33.1505C29.8472 35.5529 29.1641 37.7268 28.0115 39.599C27.7449 39.966 27.3367 40.0688 26.9847 39.8608C26.603 39.5812 26.5333 39.105 26.7142 38.8488ZM32.6892 24.2791L32.6992 24.299L32.7109 24.3179C34.2982 26.9058 35.1803 29.8909 35.1975 33.122C35.2147 36.3515 34.3652 39.3446 32.8069 41.9484C32.568 42.3325 32.1647 42.4408 31.7558 42.2505C31.3836 42.008 31.2836 41.6061 31.478 41.2001C32.8033 38.8465 33.6274 36.073 33.6117 33.1304C33.5961 30.2009 32.8301 27.4319 31.3894 25.0781C31.1944 24.6762 31.291 24.2759 31.6587 24.0306C32.1024 23.8187 32.5346 23.974 32.6892 24.2791ZM37.3892 21.8162L37.396 21.8298L37.4037 21.843C39.3272 25.1679 40.4573 28.9694 40.4793 33.0938C40.5012 37.2141 39.4139 41.0237 37.5295 44.3665C37.2901 44.7462 36.8887 44.8526 36.4817 44.6632C36.1107 44.4214 36.0102 44.0212 36.2022 43.6166C38.0176 40.5182 38.9951 36.9286 38.9748 33.1019C38.9543 29.2652 37.8525 25.6895 36.0925 22.6217C35.872 22.1739 36.0274 21.7353 36.3352 21.5793C36.787 21.3504 37.2319 21.5058 37.3892 21.8162Z" fill="white"/>
<defs>
<filter id="filter0_b_47_130" x="-22.1752" y="-22.7246" width="450.35" height="305.184" filterUnits="userSpaceOnUse" color-interpolation-filters="sRGB">
<feFlood flood-opacity="0" result="BackgroundImageFix"/>
<feGaussianBlur in="BackgroundImageFix" stdDeviation="11.4545"/>
<feComposite in2="SourceAlpha" operator="in" result="effect1_backgroundBlur_47_130"/>
<feBlend mode="normal" in="SourceGraphic" in2="effect1_backgroundBlur_47_130" result="shape"/>
</filter>
<filter id="filter1_f_47_130" x="56.8233" y="-243.605" width="510.441" height="379.265" filterUnits="userSpaceOnUse" color-interpolation-filters="sRGB">
<feFlood flood-opacity="0" result="BackgroundImageFix"/>
<feBlend mode="normal" in="SourceGraphic" in2="BackgroundImageFix" result="shape"/>
<feGaussianBlur stdDeviation="27.9144" result="effect1_foregroundBlur_47_130"/>
</filter>
<filter id="filter2_f_47_130" x="-1.67193" y="-281.851" width="510.441" height="379.265" filterUnits="userSpaceOnUse" color-interpolation-filters="sRGB">
<feFlood flood-opacity="0" result="BackgroundImageFix"/>
<feBlend mode="normal" in="SourceGraphic" in2="BackgroundImageFix" result="shape"/>
<feGaussianBlur stdDeviation="27.9144" result="effect1_foregroundBlur_47_130"/>
</filter>
<linearGradient id="paint0_linear_47_130" x1="2" y1="1.45056" x2="145.386" y2="361.324" gradientUnits="userSpaceOnUse">
<stop stop-color="white" stop-opacity="0.4"/>
<stop offset="1" stop-color="white" stop-opacity="0"/>
</linearGradient>
<radialGradient id="paint1_radial_47_130" cx="0" cy="0" r="1" gradientUnits="userSpaceOnUse" gradientTransform="translate(2 1.45056) rotate(32.5741) scale(477.04 300.772)">
<stop stop-color="white" stop-opacity="0.7"/>
<stop offset="0.677083" stop-color="#B691FF" stop-opacity="0.4"/>
<stop offset="1" stop-color="white" stop-opacity="0"/>
</radialGradient>
<linearGradient id="paint2_linear_47_130" x1="392.779" y1="254.003" x2="353.683" y2="93.2258" gradientUnits="userSpaceOnUse">
<stop stop-color="white" stop-opacity="0.32"/>
<stop offset="0.140625" stop-color="#F9FFF5"/>
<stop offset="1" stop-color="white" stop-opacity="0"/>
</linearGradient>
<linearGradient id="paint3_linear_47_130" x1="399.121" y1="3.39628" x2="360.897" y2="165.207" gradientUnits="userSpaceOnUse">
<stop stop-color="#53555E"/>
<stop offset="1" stop-color="white" stop-opacity="0"/>
</linearGradient>
</defs>
</svg>
