<svg width="32" height="32" viewBox="0 0 32 32" fill="none" xmlns="http://www.w3.org/2000/svg">
<path d="M26.5 4.5H5.5C4.94772 4.5 4.5 4.94772 4.5 5.5V26.5C4.5 27.0523 4.94772 27.5 5.5 27.5H26.5C27.0523 27.5 27.5 27.0523 27.5 26.5V5.5C27.5 4.94772 27.0523 4.5 26.5 4.5Z" stroke="url(#paint0_linear_5_45)" stroke-width="2" stroke-linecap="round" stroke-linejoin="round"/>
<path d="M15 14V22" stroke="url(#paint1_linear_5_45)" stroke-width="2" stroke-linecap="round" stroke-linejoin="round"/>
<path d="M11 14V22" stroke="url(#paint2_linear_5_45)" stroke-width="2" stroke-linecap="round" stroke-linejoin="round"/>
<path d="M15 17.5C15 16.5717 15.3687 15.6815 16.0251 15.0251C16.6815 14.3687 17.5717 14 18.5 14C19.4283 14 20.3185 14.3687 20.9749 15.0251C21.6313 15.6815 22 16.5717 22 17.5V22" stroke="url(#paint3_linear_5_45)" stroke-width="2" stroke-linecap="round" stroke-linejoin="round"/>
<path d="M11 11.5C11.8284 11.5 12.5 10.8284 12.5 10C12.5 9.17157 11.8284 8.5 11 8.5C10.1716 8.5 9.5 9.17157 9.5 10C9.5 10.8284 10.1716 11.5 11 11.5Z" fill="url(#paint4_linear_5_45)"/>
<defs>
<linearGradient id="paint0_linear_5_45" x1="16" y1="4.5" x2="16" y2="27.5" gradientUnits="userSpaceOnUse">
<stop offset="0.213542" stop-color="#FF8B99"/>
<stop offset="1" stop-color="#D33245"/>
</linearGradient>
<linearGradient id="paint1_linear_5_45" x1="15.5" y1="14" x2="15.5" y2="22" gradientUnits="userSpaceOnUse">
<stop offset="0.213542" stop-color="#FF8B99"/>
<stop offset="1" stop-color="#D33245"/>
</linearGradient>
<linearGradient id="paint2_linear_5_45" x1="11.5" y1="14" x2="11.5" y2="22" gradientUnits="userSpaceOnUse">
<stop offset="0.213542" stop-color="#FF8B99"/>
<stop offset="1" stop-color="#D33245"/>
</linearGradient>
<linearGradient id="paint3_linear_5_45" x1="18.5" y1="14" x2="18.5" y2="22" gradientUnits="userSpaceOnUse">
<stop offset="0.213542" stop-color="#FF8B99"/>
<stop offset="1" stop-color="#D33245"/>
</linearGradient>
<linearGradient id="paint4_linear_5_45" x1="11" y1="8.5" x2="11" y2="11.5" gradientUnits="userSpaceOnUse">
<stop offset="0.213542" stop-color="#FF8B99"/>
<stop offset="1" stop-color="#D33245"/>
</linearGradient>
</defs>
</svg>
