<svg width="24" height="24" viewBox="0 0 24 24" fill="none" xmlns="http://www.w3.org/2000/svg">
<path d="M4.25623 16.5937C3.13956 14.7097 2.74896 12.4829 3.15777 10.3314C3.56657 8.1798 4.74666 6.25143 6.47649 4.90829C8.20633 3.56514 10.3669 2.89958 12.5527 3.03657C14.7385 3.17355 16.7991 4.10365 18.3477 5.65226C19.8963 7.20086 20.8264 9.26148 20.9634 11.4472C21.1004 13.633 20.4348 15.7936 19.0917 17.5235C17.7485 19.2533 15.8202 20.4334 13.6686 20.8422C11.517 21.251 9.29022 20.8604 7.40623 19.7437V19.7437L4.29373 20.625C4.16621 20.6623 4.031 20.6646 3.90228 20.6317C3.77356 20.5987 3.65607 20.5318 3.56212 20.4378C3.46817 20.3439 3.40123 20.2264 3.3683 20.0977C3.33538 19.969 3.33768 19.8338 3.37498 19.7062L4.25623 16.5937Z" stroke="white" stroke-width="1.2" stroke-linecap="round" stroke-linejoin="round"/>
<path d="M14.2594 17.25C13.2725 17.2525 12.2949 17.0599 11.3827 16.6834C10.4705 16.3069 9.64171 15.7539 8.94391 15.0561C8.2461 14.3583 7.69306 13.5295 7.31656 12.6173C6.94005 11.7051 6.7475 10.7275 6.74998 9.74065C6.75246 9.04608 7.03011 8.3808 7.52213 7.89055C8.01414 7.40029 8.68041 7.12502 9.37498 7.12502V7.12502C9.48957 7.12411 9.6023 7.1541 9.70129 7.21184C9.80027 7.26958 9.88187 7.35294 9.93748 7.45315L11.0344 9.36565C11.0996 9.48191 11.1331 9.61329 11.1314 9.74659C11.1298 9.87989 11.0931 10.0104 11.025 10.125L10.1437 11.5969C10.5951 12.601 11.399 13.4049 12.4031 13.8563L13.875 12.975C13.9896 12.9069 14.1201 12.8702 14.2534 12.8686C14.3867 12.8669 14.5181 12.9004 14.6344 12.9656L16.5469 14.0625C16.6471 14.1181 16.7304 14.1997 16.7882 14.2987C16.8459 14.3977 16.8759 14.5104 16.875 14.625C16.8725 15.3188 16.5965 15.9837 16.1067 16.4752C15.617 16.9666 14.9532 17.2451 14.2594 17.25V17.25Z" stroke="white" stroke-width="1.5" stroke-linecap="round" stroke-linejoin="round"/>
</svg>
