<svg width="67" height="66" viewBox="0 0 67 66" fill="none" xmlns="http://www.w3.org/2000/svg">
<path d="M33.5 63.25C50.0685 63.25 63.5 49.8185 63.5 33.25C63.5 16.6815 50.0685 3.25 33.5 3.25C16.9315 3.25 3.5 16.6815 3.5 33.25C3.5 49.8185 16.9315 63.25 33.5 63.25Z" stroke="#1B2128" stroke-width="5.125" stroke-linecap="round" stroke-linejoin="round"/>
<path d="M33.5 53.25C35.5711 53.25 37.25 51.5711 37.25 49.5C37.25 47.4289 35.5711 45.75 33.5 45.75C31.4289 45.75 29.75 47.4289 29.75 49.5C29.75 51.5711 31.4289 53.25 33.5 53.25Z" fill="#1B2128"/>
<path d="M33.5 38.25V35.75C35.2306 35.75 36.9223 35.2368 38.3612 34.2754C39.8002 33.3139 40.9217 31.9473 41.5839 30.3485C42.2462 28.7496 42.4195 26.9903 42.0819 25.293C41.7443 23.5956 40.9109 22.0365 39.6872 20.8128C38.4635 19.5891 36.9044 18.7558 35.207 18.4181C33.5097 18.0805 31.7504 18.2538 30.1515 18.9161C28.5527 19.5783 27.1861 20.6998 26.2246 22.1388C25.2632 23.5777 24.75 25.2694 24.75 27" stroke="#1B2128" stroke-width="5.125" stroke-linecap="round" stroke-linejoin="round"/>
</svg>
