<svg width="55" height="40" viewBox="0 0 55 40" fill="none" xmlns="http://www.w3.org/2000/svg">
<path d="M30.6731 35.7895L30.6731 12.6316C30.6731 9.28148 32.0103 6.06858 34.3906 3.6997C36.7708 1.33082 39.9992 -1.19098e-07 43.3654 -4.13381e-07C43.9264 -4.62428e-07 44.4645 0.221802 44.8612 0.616615C45.2579 1.01143 45.4808 1.54691 45.4808 2.10526C45.4808 2.66361 45.2579 3.1991 44.8612 3.59391C44.4645 3.98872 43.9264 4.21053 43.3654 4.21053C41.1234 4.21747 38.9752 5.10691 37.3899 6.68466C35.8045 8.26241 34.9108 10.4003 34.9038 12.6316L34.9038 14.7368L50.7692 14.7368C51.8913 14.7368 52.9674 15.1804 53.7608 15.9701C54.5543 16.7597 55 17.8307 55 18.9474L55 35.7895C55 36.9062 54.5543 37.9771 53.7608 38.7668C52.9674 39.5564 51.8913 40 50.7692 40L34.9038 40C33.7818 40 32.7057 39.5564 31.9122 38.7668C31.1188 37.9771 30.6731 36.9062 30.6731 35.7895ZM4.23077 40L20.0962 40C21.2182 40 22.2943 39.5564 23.0878 38.7668C23.8812 37.9771 24.3269 36.9062 24.3269 35.7895L24.3269 18.9474C24.3269 17.8307 23.8812 16.7597 23.0878 15.9701C22.2943 15.1805 21.2182 14.7368 20.0962 14.7368L4.23077 14.7368L4.23077 12.6316C4.23774 10.4003 5.13146 8.26242 6.7168 6.68467C8.30214 5.10691 10.4503 4.21747 12.6923 4.21053C13.2533 4.21053 13.7914 3.98873 14.1881 3.59391C14.5848 3.1991 14.8077 2.66362 14.8077 2.10527C14.8077 1.54691 14.5848 1.01143 14.1881 0.616618C13.7914 0.221804 13.2533 2.2191e-06 12.6923 2.26814e-06C9.3261 2.56243e-06 6.09776 1.33082 3.71749 3.69971C1.33722 6.06859 -1.73182e-06 9.28148 -1.43895e-06 12.6316L5.85578e-07 35.7895C6.83204e-07 36.9062 0.445742 37.9771 1.23917 38.7668C2.03259 39.5564 3.1087 40 4.23077 40V40Z" fill="rgba(0, 0, 0, .15)"/>
</svg>
