<svg xmlns="http://www.w3.org/2000/svg" xmlns:xlink="http://www.w3.org/1999/xlink" id="_Layer_" data-name="&lt;Layer&gt;" viewBox="0 0 300 300"><defs><style>.cls-1{fill:none;}.cls-2{fill:#9192ff;}.cls-3{fill:#ebebff;}.cls-4{clip-path:url(#clip-path);}.cls-10,.cls-5{fill:#fff;}.cls-6{fill:#d1d1ff;}.cls-7{opacity:0.8;}.cls-8{fill:#fff2e0;opacity:0.7;}.cls-9{fill:#ffa121;}.cls-10{opacity:0.4;}.cls-11,.cls-17{fill:#d33245;}.cls-12{fill:#1b1b43;}.cls-13{fill:#3335cf;}.cls-14{fill:#ffbc96;}.cls-15{fill:#d28572;}.cls-16{fill:#26289c;}.cls-17{opacity:0.3;}.cls-18{fill:#fe5b52;opacity:0.2;}.cls-19{fill:#c5c5ff;}</style><clipPath id="clip-path"><path class="cls-1" d="M148.06,162.93a10.26,10.26,0,0,0,10.26,10.26h114a10.26,10.26,0,0,0,10.25-10.26V93.6H148.06Z"></path></clipPath></defs><path class="cls-2" d="M77.15,173l-.31-.32,1.92-1.84.31.32ZM81,169.33l-.31-.31c.62-.62,1.25-1.25,1.86-1.89l.32.31C82.25,168.08,81.62,168.71,81,169.33Zm3.69-3.84-.33-.3c.59-.65,1.19-1.31,1.77-2l.33.29C85.87,164.17,85.27,164.84,84.68,165.49Zm3.49-4-.34-.28c.55-.67,1.11-1.37,1.65-2.07l.35.27C89.28,160.08,88.72,160.78,88.17,161.45Zm3.28-4.2-.36-.26c.52-.7,1-1.42,1.56-2.15l.37.26C92.5,155.83,92,156.55,91.45,157.25Zm3.08-4.34-.36-.25c.49-.73,1-1.47,1.46-2.21l.38.24Zm24.29-3.08a6.5,6.5,0,0,1-2.39-.45l.17-.41a6,6,0,0,0,2.22.42h.29l0,.45Zm3-.75-.22-.39a4.77,4.77,0,0,0,1.76-1.78l.39.22A5.31,5.31,0,0,1,121.77,149.08Zm-24.34-.64-.37-.24c.46-.75.92-1.51,1.37-2.27l.39.23C98.36,146.92,97.9,147.68,97.43,148.44Zm16.76-.62a7.72,7.72,0,0,1-1.46-2.3l.41-.17a7.49,7.49,0,0,0,1.37,2.17Zm10.24-3.33H124v-.12a4.65,4.65,0,0,0-.39-1.88c-.07-.15-.14-.3-.22-.44l.38-.22a5.21,5.21,0,0,1,.24.47,5.11,5.11,0,0,1,.43,2.07Zm-24.1-.47-.34-.28a16.33,16.33,0,0,1,1.89-1.92l.29.33A16.25,16.25,0,0,0,100.33,144ZM112,142.9a11.15,11.15,0,0,1-.07-1.29,11.28,11.28,0,0,1,.09-1.42l.44.05a10.62,10.62,0,0,0-.09,1.37c0,.42,0,.83.07,1.23Zm-7.76-2.3-.23-.38a19.26,19.26,0,0,1,2.39-1.24l.17.41A19,19,0,0,0,104.28,140.6Zm17.39-.46a9.76,9.76,0,0,0-2.26-1.26l.16-.41a10.13,10.13,0,0,1,2.37,1.32Zm-12.58-1.62-.11-.42a18.12,18.12,0,0,1,2.64-.52l0,.44A19.25,19.25,0,0,0,109.09,138.52Zm7.81-.36a17.09,17.09,0,0,0-2.61-.28v-.44a16.66,16.66,0,0,1,2.68.28Zm-3.79-.45-.42-.15a13.65,13.65,0,0,1,1.17-2.44l.38.24A12.68,12.68,0,0,0,113.11,137.71Zm2.71-4.43-.33-.31.4-.41a15.49,15.49,0,0,1,1.62-1.38l.27.36a12.84,12.84,0,0,0-1.58,1.34C116.07,133,115.94,133.14,115.82,133.28Zm4.2-3.1-.2-.39a16.93,16.93,0,0,1,2.5-1l.13.43A15.55,15.55,0,0,0,120,130.18Zm5-1.62-.11-.43,2.56-.69.12.42C126.75,128.1,125.89,128.33,125,128.56Zm5.12-1.46-.13-.42q1.29-.41,2.52-.84l.15.42C131.86,126.55,131,126.83,130.14,127.1Zm5-1.76-.16-.42c.83-.32,1.65-.66,2.45-1l.18.41C136.85,124.67,136,125,135.18,125.34Zm4.9-2.12-.19-.4,2.39-1.16.19.4Zm4.78-2.32-.19-.4,2.39-1.17.2.4Zm4.79-2.33-.2-.4,2.4-1.16.19.4Zm4.78-2.33-.19-.39,2.39-1.17.2.4Zm4.79-2.32-.2-.4,2.4-1.16.19.4Z"></path><path class="cls-3" d="M151,31.48a2.44,2.44,0,0,0,0,.27h58.31a9.24,9.24,0,0,0-9.47-8.66,9.78,9.78,0,0,0-4.53,1.09,10.36,10.36,0,0,0-5-9.25c-5-2.88-11.47-.92-14.51,4.37a11.68,11.68,0,0,0-1.54,5,21,21,0,0,0-8.68-1.77C157.55,22.55,151,26.55,151,31.48Z"></path><path class="cls-2" d="M54.05,167.72H6v-.17a7.68,7.68,0,0,1,7.92-7.26,8.25,8.25,0,0,1,3.54.79,8.68,8.68,0,0,1,4.22-7.45,8.38,8.38,0,0,1,6.4-.81,9.43,9.43,0,0,1,5.71,4.45A9.69,9.69,0,0,1,35,161.22a17.4,17.4,0,0,1,7-1.37c6.66,0,12.07,3.35,12.07,7.48a1.93,1.93,0,0,1,0,.24Zm-47.73-.34H53.74v0c0-3.94-5.27-7.15-11.74-7.15a17.2,17.2,0,0,0-7,1.43l-.22.1,0-.24a9.28,9.28,0,0,0-1.23-4,9,9,0,0,0-5.5-4.3,8,8,0,0,0-6.16.78,8.34,8.34,0,0,0-4,7.42v.28l-.24-.12a7.92,7.92,0,0,0-3.64-.88A7.37,7.37,0,0,0,6.32,167.38Z"></path><g class="cls-4"><path class="cls-5" d="M148.06,162.93a10.26,10.26,0,0,0,10.26,10.26h114a10.26,10.26,0,0,0,10.25-10.26V93.6H148.06Z"></path><path class="cls-6" d="M141,111.28A13.86,13.86,0,0,1,153,102a14.08,14.08,0,0,1,13.35,7.41,8.3,8.3,0,0,1,7.15,4,7.73,7.73,0,0,1-.25,8,11.33,11.33,0,0,1,8.06,5.91,10.58,10.58,0,0,1-.22,9.76,12.93,12.93,0,0,1,12.27.45,12,12,0,0,1,5.8,10.46,12.91,12.91,0,0,1,22.17,1,20.53,20.53,0,0,1,14.41-13,21.37,21.37,0,0,1,19.13,4.85c7.5,1.17,13,9.31,11,16.4A15.17,15.17,0,0,1,271.16,171a15.49,15.49,0,0,1-9.52,11.56l-129-.08-11-49.23Z"></path><g class="cls-7"><path class="cls-5" d="M139,127.63a13.18,13.18,0,0,1,24.48-1.93,7.79,7.79,0,0,1,6.65,12,10.74,10.74,0,0,1,7.57,15.66,11.9,11.9,0,0,1,17.45,10.89,12.26,12.26,0,0,1,21.42,1,19.75,19.75,0,0,1,32.4-8.23c7.25,1.16,12.52,9.3,10.63,16.39a15.11,15.11,0,0,1-4.12,25.46H130.78l-10.59-49.22Z"></path></g><path class="cls-8" d="M238.09,95.82c-37.35,35.12-63.83,44.59-97.2,48l-2.21,35.46,35,12c30.59-.88,60-45.17,78.11-83.16L238.09,95.82"></path><path class="cls-9" d="M243.35,96.27c-6.07,7.19-15.23,14.06-26,23.34l14.74-6a102.23,102.23,0,0,1-5.91,9c3.39-1.57,8.86-5,10.67-6.85,0,2.55-3.08,6.82-4.42,9.15,7.86-6.73,15-14.94,17.32-22.15l-6.37-6.47"></path><path class="cls-10" d="M245.07,96.64c-3.59,4.76-9,9.35-15.32,15.53l8.6-4.08a68.09,68.09,0,0,1-3.52,5.93,30.19,30.19,0,0,0,6.26-4.58c0,1.67-1.85,4.49-2.65,6,4.62-4.48,8.85-9.93,10.26-14.67l-3.63-4.16"></path><path class="cls-6" d="M189.3,121c0,1.11,0,3-1.11,3.62-1.85,1.08-3.3-1.53-4-2.84-.81-1.56-.61-3.5,1.23-4.19C187.86,116.71,189.22,119,189.3,121Z"></path><path class="cls-6" d="M277.11,154.75c.05,1.11,0,3-1.11,3.63-1.85,1.07-3.31-1.53-4-2.84-.81-1.57-.6-3.5,1.23-4.2C275.66,150.42,277,152.68,277.11,154.75Z"></path><circle class="cls-6" cx="179.46" cy="108.48" r="1.55"></circle><circle class="cls-6" cx="258.38" cy="136.48" r="2.36"></circle></g><path class="cls-2" d="M272.27,173.41H158.32a10.5,10.5,0,0,1-10.49-10.48V93.37H282.75v69.56A10.5,10.5,0,0,1,272.27,173.41Zm-124-79.59v69.11a10,10,0,0,0,10,10h114a10,10,0,0,0,10-10V93.82Z"></path><path class="cls-5" d="M272.27,66.74H158.32A10.25,10.25,0,0,0,148.06,77V93.6H282.52V77A10.25,10.25,0,0,0,272.27,66.74Z"></path><path class="cls-2" d="M282.75,93.82H147.83V77a10.51,10.51,0,0,1,10.49-10.48h114A10.5,10.5,0,0,1,282.75,77Zm-134.47-.45h134V77a10,10,0,0,0-10-10H158.32a10,10,0,0,0-10,10Z"></path><circle class="cls-6" cx="161.6" cy="80.17" r="5.62" transform="translate(50.89 222.59) rotate(-78.53)"></circle><circle class="cls-5" cx="178.17" cy="80.17" r="5.62"></circle><path class="cls-2" d="M178.17,86A5.85,5.85,0,1,1,184,80.17,5.86,5.86,0,0,1,178.17,86Zm0-11.25a5.41,5.41,0,1,0,5.4,5.41A5.41,5.41,0,0,0,178.17,74.76Z"></path><rect class="cls-5" x="193.22" y="74.8" width="33.13" height="10.74" rx="5.37"></rect><path class="cls-2" d="M221,85.76H198.59a5.59,5.59,0,0,1,0-11.18H221a5.59,5.59,0,0,1,0,11.18ZM198.59,75a5.15,5.15,0,1,0,0,10.29H221A5.15,5.15,0,1,0,221,75Z"></path><path class="cls-11" d="M266.69,54.5c-9,7.86-24.47,2.44-29.28,8.72l13.75,10.89Z"></path><path class="cls-11" d="M237.41,63.22h0a5.31,5.31,0,0,0,1,5.37l9.74,11.16,3-5.64Z"></path><path class="cls-11" d="M287,70.62c-5.59,10.54,3.23,24.37-1.77,30.5L271.51,90.23Z"></path><path class="cls-11" d="M285.27,101.12h0a5.31,5.31,0,0,1-5.45.28l-13.1-6.93,4.79-4.24Z"></path><polygon class="cls-12" points="294.03 40.99 281.79 45.48 292.46 53.94 294.03 40.99"></polygon><path class="cls-11" d="M292.46,53.94c-1.71,19.37-16,37.45-33.41,47.49L243.2,88.9c6.65-20.92,19-35.89,38.58-43.42Z"></path><polygon class="cls-13" points="243.2 88.9 236.33 93.66 255.99 109.22 259.05 101.43 243.2 88.9"></polygon><circle class="cls-5" cx="277.19" cy="62.25" r="7.35" transform="translate(-5.41 33.16) rotate(-6.78)"></circle><path class="cls-2" d="M277.74,67.47l0-.44a5.26,5.26,0,0,0,1.23-.3l.16.41A5.23,5.23,0,0,1,277.74,67.47Zm-1.38,0A5.11,5.11,0,0,1,275,67l.19-.4a4.57,4.57,0,0,0,1.21.36Zm3.94-1-.26-.35a4.8,4.8,0,0,0,.91-.89l.35.28A5.35,5.35,0,0,1,280.3,66.47Zm-6.44-.17a5.06,5.06,0,0,1-.95-1l.36-.26a4.8,4.8,0,0,0,.87.93Zm8-1.63-.39-.2a5.14,5.14,0,0,0,.43-1.19l.43.09A5.31,5.31,0,0,1,281.84,64.67Zm-9.57-.61a5.09,5.09,0,0,1-.3-1.35l.44,0a5.18,5.18,0,0,0,.27,1.24ZM282,62a4.76,4.76,0,0,0-.23-1.24l.42-.14a5.26,5.26,0,0,1,.25,1.36Zm-9.52-.6-.43-.08a5.08,5.08,0,0,1,.42-1.32l.4.19A5,5,0,0,0,272.46,61.41Zm8.74-1.79a4.68,4.68,0,0,0-.83-.95l.3-.34a5.27,5.27,0,0,1,.9,1.05Zm-7.66-.48-.34-.29a5.67,5.67,0,0,1,1-.93l.25.37A4.73,4.73,0,0,0,273.54,59.14ZM279.32,58a4.6,4.6,0,0,0-1.2-.41l.09-.44a5.08,5.08,0,0,1,1.31.45Zm-3.7-.24-.15-.42a5.21,5.21,0,0,1,1.36-.27l0,.44A4.71,4.71,0,0,0,275.62,57.72Z"></path><rect class="cls-12" x="247" y="86.29" width="2.83" height="24.6" rx="1.42" transform="translate(114.87 -132.92) rotate(38.37)"></rect><path class="cls-2" d="M265.38,260.19h-2.66v-.45h2.66Zm-5.32,0H257.4v-.45h2.66Zm-5.32,0h-2.66v-.45h2.66Zm-5.32,0h-2.66v-.45h2.66Zm-5.32,0h-2.66v-.45h2.66Zm-5.32,0h-2.66v-.45h2.66Zm-5.32,0H230.8v-.45h2.66Zm-5.32,0h-2.66v-.45h2.66Zm-5.32,0h-2.66v-.45h2.66Zm-5.32,0h-2.66v-.45h2.66Zm-5.32,0a8.67,8.67,0,0,1-2.68-.46l.14-.42a7.83,7.83,0,0,0,2.54.43Zm53.52,0,0-.44a7.81,7.81,0,0,0,2.53-.51l.16.42A8.4,8.4,0,0,1,265.7,260.18Zm-58.6-1.73a8.37,8.37,0,0,1-1.87-2l.36-.25a7.91,7.91,0,0,0,1.78,1.87Zm63.63-.15-.28-.35a8.08,8.08,0,0,0,1.72-1.92l.37.24A8.54,8.54,0,0,1,270.73,258.3ZM204.07,254a8.62,8.62,0,0,1-.32-2.33v-.36h.45v.36a8.18,8.18,0,0,0,.3,2.21Zm69.55-.23-.43-.11a7.81,7.81,0,0,0,.25-2v-.59h.44v.59A8.22,8.22,0,0,1,273.62,253.78Zm-69.42-5.12h-.45V246h.45Zm69.68-.23h-.44v-2.66h.44Zm-69.68-5.09h-.45v-2.66h.45Zm69.68-.23h-.44v-2.66h.44ZM204.2,238h-.45v-2.66h.45Zm69.68-.23h-.44v-2.66h.44ZM204.2,232.7h-.45V230h.45Zm69.68-.23h-.44v-2.66h.44Zm-69.68-5.09h-.45v-2.66h.45Zm69.68-.23h-.44v-2.66h.44Zm-69.68-5.09h-.45v-1.77c0-.3,0-.61.05-.91l.44.05a8.12,8.12,0,0,0,0,.86Zm69.68-.23h-.44v-1.54a9.81,9.81,0,0,0-.07-1.09l.44-.06a8.77,8.77,0,0,1,.07,1.15Zm-69-4.89-.4-.18A8.59,8.59,0,0,1,206,214.5l.32.3A7.94,7.94,0,0,0,204.92,216.94Zm67.7-.21a8.39,8.39,0,0,0-1.5-2.1l.32-.31a8.6,8.6,0,0,1,1.57,2.22Zm-64.23-3.51-.22-.39a8.48,8.48,0,0,1,2.57-.91l.08.44A7.84,7.84,0,0,0,208.39,213.22Zm60.66-.11a8,8,0,0,0-2.46-.79l.07-.44a8.81,8.81,0,0,1,2.59.83Zm-5.08-.88h-2.66v-.45H264Zm-5.32,0H256v-.45h2.66Zm-5.32,0h-2.66v-.45h2.66Zm-5.32,0h-2.66v-.45H248Zm-5.32,0H240v-.45h2.66Zm-5.32,0h-2.66v-.45h2.66Zm-5.32,0h-2.66v-.45h2.66Zm-5.32,0h-2.66v-.45h2.66Zm-5.32,0h-2.66v-.45h2.66Zm-5.32,0h-2.66v-.45h2.66Z"></path><rect class="cls-11" x="197.39" y="203.22" width="69.69" height="49.28" rx="24.64"></rect><rect class="cls-5" x="209.5" y="232.01" width="7.55" height="15.32"></rect><rect class="cls-5" x="222.14" y="232.5" width="7.55" height="14.83"></rect><rect class="cls-5" x="234.78" y="224.75" width="7.55" height="22.58"></rect><rect class="cls-5" x="247.41" y="218.13" width="7.55" height="29.2"></rect><rect class="cls-5" x="211.99" y="210.16" width="40.49" height="1.77"></rect><path class="cls-11" d="M88.71,155.12A21,21,0,0,0,81,144l-1.49-1.1,1.27,26.29,9.82-7.6Z"></path><path class="cls-14" d="M120.28,186.89l-2.18-4.27a4.31,4.31,0,0,0-2.71-2.21L109,178.63,92.45,168.08l-1.87-6.47-9.82,7.6.09,1.84a9.7,9.7,0,0,0,5.85,8.45l16,6.92,7.63.17c2.46.85,3.3,3,4.83,2.21.57-.29-1.65-3.94-1.65-3.94l3.68,4.06Z"></path><rect class="cls-15" x="89.7" y="169.1" width="3.34" height="0.51" transform="translate(-96.86 129.39) rotate(-49.66)"></rect><path class="cls-16" d="M91.55,197.54l12-1.06c7.82-.69,14.63,5.63,15,13.93l2.72,59.2-16.59.52Z"></path><polygon class="cls-12" points="106.05 269.54 106.56 285.89 131.13 285.89 119.01 275.81 118.25 267.93 106.05 269.54"></polygon><rect class="cls-5" x="113.16" y="277.29" width="6.52" height="1.02" transform="translate(-145.34 128.79) rotate(-37.61)"></rect><polygon class="cls-6" points="100.46 269.54 100.97 285.89 125.53 285.89 113.42 275.81 112.66 267.93 100.46 269.54"></polygon><rect class="cls-5" x="107.57" y="277.29" width="6.52" height="1.02" transform="translate(-146.51 125.38) rotate(-37.61)"></rect><path class="cls-13" d="M118.76,271.15H98.42L83.93,226.56l-2-6.25-29-.12a8.1,8.1,0,0,1-5-2.08A11.8,11.8,0,0,1,44,207.44l2.54-18.13,43.05,5.59a19.32,19.32,0,0,1,16.43,15.23Z"></path><polygon class="cls-12" points="87.88 220.31 83.93 226.56 81.9 220.31 87.88 220.31"></polygon><path class="cls-11" d="M82.55,186c-.21.84-.42,1.68-.65,2.52l-1.52,6.23-20.08-.83-14.46-.6A6.21,6.21,0,0,1,40,185.86l6.74-32.43a12.31,12.31,0,0,1,10.9-10.34l16.49-1.7,5.34,1.53c5.21,2.8,5.21,7.86,5.46,11.18C86.05,168.63,84.7,177.43,82.55,186Z"></path><path class="cls-17" d="M68.94,185c-.21.84,13.19,2.72,13,3.56l-1.52,6.23-20.08-.83c-7-5.3-9.64-16.81-12.2-31.24Z"></path><path class="cls-11" d="M65,150.78a12.3,12.3,0,0,0,3,2.38,10,10,0,0,0,3.59,1.21,6.05,6.05,0,0,0,3.64-.54,3.73,3.73,0,0,0,2-3l.2,0a4,4,0,0,1-.5,1.93,3.9,3.9,0,0,1-1.44,1.44,6.31,6.31,0,0,1-3.93.65,9.83,9.83,0,0,1-3.73-1.34,10.4,10.4,0,0,1-2.94-2.62Z"></path><path class="cls-11" d="M85.4,170.6l-.38,0a87.93,87.93,0,0,0-1.1-18.68l.37-.06A88.16,88.16,0,0,1,85.4,170.6Z"></path><rect class="cls-12" x="100.63" y="188.63" width="18.89" height="3.73"></rect><polygon class="cls-11" points="152.22 192.35 114.27 192.35 131.72 158.97 169.68 158.97 152.22 192.35"></polygon><path class="cls-12" d="M69.13,114.71c-4.45-4.39-12.83-2.54-12.71,4.83-9.15,2.41-9.66,12.45-6,17.6l3.18.25.7-3.75,1.84,3.82,8.89.57Z"></path><path class="cls-14" d="M76.57,131.1v14c0,.12,0,.24,0,.37a4.7,4.7,0,0,1-5.86,4.18,9.44,9.44,0,0,1-7.09-9.23l.07-9.33Z"></path><path class="cls-12" d="M76.57,137.16v8c0,.12,0,.24,0,.37-3.75-.62-8.08-4.95-9.13-9.68Z"></path><path class="cls-14" d="M84.14,132.14a25.57,25.57,0,0,1-.79,3.33c-1.12,3.56-3.13,6.5-6.72,6-8.45-1.21-13.15-9.91-13.15-9.91l5.78-6.61,3.87-5.22,11.63,5A43.57,43.57,0,0,1,84.14,132.14Z"></path><path class="cls-12" d="M66,129.32c3.71-.12,6.58-2,7.8-7.37,0,0,8.64,7.46,12.88,3.47,3.54-3.33-2.47-11-12.43-11.92a14.12,14.12,0,0,0-10.09,3.08c-4.83,3.87-5.29,12.87-.78,16Z"></path><path class="cls-9" d="M61.63,119.92a4,4,0,0,1,.33-2.68,6,6,0,0,1,1.74-2.15,6.25,6.25,0,0,1,2.49-1.16,4.41,4.41,0,0,1,2.69.21,14.31,14.31,0,0,0-2.3.92,12.09,12.09,0,0,0-1.94,1.24A11.78,11.78,0,0,0,63,117.87,9.82,9.82,0,0,0,61.63,119.92Z"></path><ellipse class="cls-14" cx="64.86" cy="129.92" rx="2.89" ry="3.49" transform="translate(-43.63 33.41) rotate(-21.82)"></ellipse><path class="cls-12" d="M64.86,131.84a4.07,4.07,0,0,0-.11-1.75,4.83,4.83,0,0,0-.91-1.5l.12-.15a2.54,2.54,0,0,1,1.09,3.45Z"></path><path class="cls-12" d="M78.75,130a.86.86,0,1,1-.86-1A.91.91,0,0,1,78.75,130Z"></path><path class="cls-12" d="M83.26,130.71a.77.77,0,1,1-1.52-.19.8.8,0,0,1,.86-.74A.81.81,0,0,1,83.26,130.71Z"></path><path class="cls-12" d="M78.7,127.58c0,.44-.67.48-1.72.51s-1.77.36-1.78.08.77-1,1.8-1.18S78.66,127.05,78.7,127.58Z"></path><path class="cls-12" d="M82.05,128c-.08.44.44.55,1.22.69s1.27.53,1.31.25a1.88,1.88,0,0,0-1.2-1.35C82.61,127.31,82.14,127.48,82.05,128Z"></path><path class="cls-12" d="M80.8,131.5a8.2,8.2,0,0,0,.65.67l.34.32a1.59,1.59,0,0,1,.36.4.72.72,0,0,1,.11.34.71.71,0,0,1-.08.36,1.23,1.23,0,0,1-.41.41,2.62,2.62,0,0,1-1,.35l-.08-.19a5.9,5.9,0,0,0,.76-.51,1,1,0,0,0,.24-.29c0-.08,0-.11,0-.21s-.4-.43-.59-.69a2.9,2.9,0,0,1-.5-.87Z"></path><path class="cls-12" d="M76.5,134.63a6.49,6.49,0,0,0,1.71,1.49,3.67,3.67,0,0,0,2.16.37l.06.19a2.6,2.6,0,0,1-1.23.23,2.65,2.65,0,0,1-1.23-.35,4,4,0,0,1-1.64-1.83Z"></path><circle class="cls-18" cx="73.45" cy="131.99" r="2.1"></circle><path class="cls-18" d="M84.14,132.14a25.57,25.57,0,0,1-.79,3.33,2.06,2.06,0,0,1-.53-1.38A2.1,2.1,0,0,1,84.14,132.14Z"></path><polygon class="cls-11" points="60.21 156.94 48.1 162.7 51.9 171.71 64.6 165.85 60.21 156.94"></polygon><path class="cls-19" d="M105.09,188.18l-.55-.28.13-.24.54.28Z"></path><path class="cls-14" d="M110.12,189.43c-.4.77-3.4-.59-4.79-1.28,1.08.6,2.94,1.78,2.12,2.43s-2.14-.58-7-2.59c.73.35,5,2.4,4,3.18s-6.27-1-6.27-1l-4.41,2.37H88.68l-18.29.12a12.86,12.86,0,0,1-3.39-.43A15.1,15.1,0,0,1,58.23,186a17.44,17.44,0,0,1-1.51-2.83L51.9,171.71l12.7-5.86,6.63,13.46,21.86,4.74,6.1-1.52a6.41,6.41,0,0,1,4.32.93C106.32,185.18,110.48,188.7,110.12,189.43Z"></path><path class="cls-18" d="M67.33,190.32a5.6,5.6,0,0,1-.33,1.89A15.1,15.1,0,0,1,58.23,186a5.59,5.59,0,0,1,9.1,4.35Z"></path><path class="cls-15" d="M93.05,184a41.59,41.59,0,0,1,4.62-1.27,17.41,17.41,0,0,1,2.39-.34,8.49,8.49,0,0,1,1.23,0l.61.15c.19.06.38.14.57.22a19.34,19.34,0,0,1,4,2.63c1.25,1,2.43,2.07,3.58,3.19l.06.05v.06a1,1,0,0,1-.12.69.9.9,0,0,1-.28.24.68.68,0,0,1-.32.11,2.52,2.52,0,0,1-1.14-.11,10.78,10.78,0,0,1-2-.83q-.94-.5-1.83-1.05c-.61-.36-1.18-.76-1.77-1.14l.27-.43a33.57,33.57,0,0,1,3,2,8,8,0,0,1,1.36,1.25,1.66,1.66,0,0,1,.26.45,1,1,0,0,1,.07.31.65.65,0,0,1-.13.35,1,1,0,0,1-.52.29,4.44,4.44,0,0,1-.49.07h0l0,0L101,188.55l.16-.39a19.27,19.27,0,0,1,2.53,1.36,3.5,3.5,0,0,1,1.09,1,.58.58,0,0,1,0,.49.62.62,0,0,1-.33.33,1.92,1.92,0,0,1-.76.18,10.73,10.73,0,0,1-2.84-.44c-.92-.24-1.82-.53-2.71-.85l.06-.19c.89.3,1.8.56,2.72.78a10.88,10.88,0,0,0,2.75.36c.43,0,1-.21.74-.49a3.21,3.21,0,0,0-1-.87,17.78,17.78,0,0,0-2.49-1.29l.17-.39,5.54,2.26-.11,0a2.43,2.43,0,0,0,.4-.05.51.51,0,0,0,.26-.13c.08,0,0-.3-.2-.51a7.93,7.93,0,0,0-1.28-1.16,29.94,29.94,0,0,0-3-2l.27-.43c.59.38,1.16.78,1.75,1.14s1.19.71,1.79,1a11.79,11.79,0,0,0,1.88.8,2.15,2.15,0,0,0,.92.1h.1l.07,0c.06,0,.08-.07.12-.09a.52.52,0,0,0,0-.33l.07.12q-1.7-1.67-3.53-3.18a19.8,19.8,0,0,0-3.91-2.62l-.54-.21-.55-.14a6.29,6.29,0,0,0-1.15,0,16.93,16.93,0,0,0-2.35.28,40.9,40.9,0,0,0-4.61,1.16Z"></path><polygon class="cls-12" points="51.98 171.88 51.82 171.54 64.35 165.75 59.13 153.54 59.48 153.39 64.85 165.95 51.98 171.88"></polygon><rect class="cls-12" x="53.1" y="225.4" width="0.67" height="57.27"></rect><rect class="cls-6" x="33.48" y="220.06" width="39.9" height="7.88" rx="3.94"></rect><path class="cls-6" d="M46.54,279.82H60.33a6.57,6.57,0,0,1,6.57,6.57v0a0,0,0,0,1,0,0H40a0,0,0,0,1,0,0v0A6.57,6.57,0,0,1,46.54,279.82Z"></path><rect class="cls-12" x="119.95" y="187.83" width="0.67" height="106.38" transform="translate(-110.05 101.36) rotate(-32.25)"></rect><rect class="cls-12" x="67.09" y="240.69" width="106.38" height="0.67" transform="translate(-147.73 214.08) rotate(-57.74)"></rect><rect class="cls-6" x="70.55" y="192.36" width="99.46" height="7.5"></rect><path class="cls-2" d="M78.89,72.76A20.79,20.79,0,1,1,99.67,52,20.81,20.81,0,0,1,78.89,72.76Zm0-41.12A20.34,20.34,0,1,0,99.23,52,20.37,20.37,0,0,0,78.89,31.64Z"></path><circle class="cls-3" cx="92.94" cy="43.83" r="22.62"></circle><polygon class="cls-12" points="92.95 44.26 80.41 34.43 80.82 33.91 92.94 43.41 99.69 37.69 100.12 38.19 92.95 44.26"></polygon><path class="cls-5" d="M34.25,92.61H22.77A3.35,3.35,0,0,0,19.42,96v11.49a3.34,3.34,0,0,0,3.35,3.34H31l3.53,4.88v-4.89a3.34,3.34,0,0,0,3.1-3.33V96A3.35,3.35,0,0,0,34.25,92.61Z"></path><path class="cls-2" d="M34.72,116.34,30.85,111H22.77a3.58,3.58,0,0,1-3.57-3.57V96a3.57,3.57,0,0,1,3.57-3.56H34.25A3.57,3.57,0,0,1,37.82,96v11.49a3.58,3.58,0,0,1-3.1,3.53ZM22.77,92.83A3.13,3.13,0,0,0,19.64,96v11.49a3.13,3.13,0,0,0,3.13,3.12h8.31l3.2,4.42v-4.41l.2,0a3.13,3.13,0,0,0,2.9-3.11V96a3.13,3.13,0,0,0-3.13-3.12Z"></path><polygon class="cls-2" points="28.28 107.61 23.68 100.97 24.77 100.21 28.16 105.09 33.25 95.98 34.41 96.63 28.28 107.61"></polygon></svg>