<svg xmlns="http://www.w3.org/2000/svg" xmlns:xlink="http://www.w3.org/1999/xlink" viewBox="0 0 750 500"><defs><style>.cls-1,.cls-12{fill:none;}.cls-2{isolation:isolate;}.cls-3{fill:#dee6f9;}.cls-4{fill:#31a8a5;}.cls-5{fill:#48b7b7;}.cls-6{fill:#6ed3d1;}.cls-7{fill:#65a4c5;}.cls-8{fill:#0c1a3c;}.cls-27,.cls-9{fill:#ffab2f;}.cls-10{fill:#ffe9e3;}.cls-11{fill:#cb1c3e;}.cls-12{stroke:#0c1a3c;stroke-linecap:round;stroke-linejoin:round;stroke-width:1.98px;}.cls-13{fill:#326c92;}.cls-13,.cls-27,.cls-28{mix-blend-mode:multiply;}.cls-13,.cls-15,.cls-16{opacity:0.3;}.cls-14,.cls-16,.cls-17{fill:#346e94;}.cls-17,.cls-27,.cls-28{opacity:0.4;}.cls-18{fill:#f9591a;}.cls-19{fill:#ffad91;}.cls-20{clip-path:url(#clip-path);}.cls-21{fill:#fff;}.cls-22{mix-blend-mode:screen;opacity:0.5;}.cls-23{fill:#5d5d5d;}.cls-24{fill:#e14545;}.cls-25{fill:#ffa466;}.cls-26,.cls-28{fill:#d33245;}.cls-29{fill:#ff8b61;}.cls-30{fill:#ea8000;}</style><clipPath id="clip-path"><rect class="cls-1" x="339.92" y="183.82" width="140.93" height="108.47" rx="2.16"></rect></clipPath></defs><g class="cls-2"><g id="OBJECT"><path class="cls-3" d="M187.09,425.67s-35.24-16.93-44.88-36.16,24.91,18.76,51.55,25.47S202.8,432.62,187.09,425.67Z"></path><path class="cls-3" d="M546.35,399s66-46.14,80.92-102.86,27.66,46.53-56,112.83S546.35,399,546.35,399Z"></path><path class="cls-3" d="M136.6,332.84c-3.42-32.64,54.05,10.93,91.57-11.91,48.64-29.61,26.16-107.67-3.8-158.71-19-32.34-90.05-118.62,31.68-86.11,87.35,23.33,274.4,189.15,264.75,86.11-14.31-152.85,164.31-5.55,85.4,152C537.67,451.09,152.09,480.93,136.6,332.84Z"></path><path class="cls-3" d="M638.68,270.37c3.89-4.94,4.93-18.83.61-21.75s-5.76,8.57-5.8,11.72C633.43,265.88,634.79,275.31,638.68,270.37Z"></path><path class="cls-3" d="M135.6,380.83s-8.51-9.13-6.83-13.54,6.77,3.5,8.13,6C138.63,376.59,138.93,383.34,135.6,380.83Z"></path><path class="cls-4" d="M131,449.81a55.47,55.47,0,0,0-55.48,55.47h111A55.47,55.47,0,0,0,131,449.81Z"></path><path class="cls-5" d="M86.2,465.81a39.48,39.48,0,0,0-39.48,39.47h79A39.47,39.47,0,0,0,86.2,465.81Z"></path><path class="cls-4" d="M200.63,513.58S213.74,422.12,81,391.36c0,0,30.29,15.08,51.5,58.84S179.56,509.6,200.63,513.58Z"></path><path class="cls-6" d="M192.13,501.77s-1-2.06-2.85-5.53-4.69-8.37-8.34-14.06c-1.81-2.85-3.88-5.87-6.07-9.05s-4.64-6.46-7.22-9.79-5.34-6.7-8.17-10.1-5.86-6.73-9-10l-2.3-2.46-2.36-2.39c-1.56-1.61-3.16-3.16-4.77-4.69-3.2-3.05-6.39-6-9.58-8.76-1.57-1.41-3.19-2.71-4.74-4L124.45,419l-2.31-1.82c-3-2.43-6-4.59-8.66-6.63l-4-2.8c-1.25-.91-2.44-1.76-3.59-2.51-2.3-1.5-4.25-2.91-5.93-3.95L94.76,398l5.54,2.85c1.77.89,3.83,2.13,6.24,3.5s5,3.05,7.9,4.86,5.92,3.93,9,6.27l2.4,1.75,2.4,1.86c1.63,1.25,3.27,2.55,4.9,3.93s3.31,2.74,4.94,4.21,3.32,2.91,4.93,4.47,3.27,3.09,4.85,4.71l2.41,2.4,2.35,2.47c3.13,3.31,6.11,6.75,9,10.17s5.55,6.93,8.07,10.37,4.82,6.86,7,10.12,4,6.44,5.7,9.41A162.36,162.36,0,0,1,189.81,496c.81,1.82,1.36,3.27,1.75,4.26Z"></path><path class="cls-5" d="M204.12,500.64S235.34,430,135.39,375.21c0,0,21,19,28.17,59S188.06,492.68,204.12,500.64Z"></path><path class="cls-6" d="M199.94,489.21s-.07-.46-.26-1.33-.47-2.14-.83-3.75-.86-3.55-1.48-5.77c-.31-1.1-.63-2.28-1-3.52L195.21,471l-.63-2.07-.73-2.12c-.49-1.44-1-2.93-1.5-4.46s-1.16-3.06-1.76-4.65c-.3-.79-.6-1.6-.9-2.41s-.66-1.6-1-2.42c-.67-1.63-1.36-3.28-2.05-4.95s-1.54-3.31-2.28-5-1.5-3.4-2.38-5.05-1.71-3.33-2.58-5l-1.26-2.51-1.39-2.45c-.93-1.62-1.85-3.24-2.76-4.84s-1.9-3.16-2.86-4.69l-2.86-4.54c-.48-.74-.91-1.5-1.42-2.2l-1.49-2.09-2.85-4.07c-1.8-2.7-3.74-5.05-5.47-7.29l-2.49-3.2c-.78-1-1.52-2-2.3-2.85l-3.9-4.5-3.36-4,3.79,3.57,4.31,4.16c.85.78,1.67,1.7,2.54,2.67s1.77,2,2.71,3.05l3,3.32c1,1.13,1.95,2.44,3,3.72s2,2.62,3.07,4,2.12,2.76,3.08,4.26l3,4.51,1.54,2.3c.54.77,1,1.6,1.45,2.4l2.84,4.89,1.43,2.47,1.31,2.54,2.57,5.09c.88,1.69,1.57,3.45,2.36,5.15s1.55,3.4,2.21,5.11l2,5.07c.32.84.65,1.65.94,2.48s.55,1.66.82,2.47c.53,1.63,1,3.23,1.56,4.78.88,3.15,1.8,6.1,2.41,8.89.32,1.39.65,2.71.93,4s.48,2.49.7,3.62c.45,2.27.71,4.28.95,5.92s.35,2.94.42,3.83S199.94,489.21,199.94,489.21Z"></path><path class="cls-5" d="M207.08,511.86s-14.31-91.28-150.25-81.73c0,0,33.38,5.53,66.49,41.14S185.77,514.24,207.08,511.86Z"></path><path class="cls-6" d="M195.48,503.06s-1.52-1.68-4.34-4.44-6.95-6.62-12.1-11c-2.57-2.2-5.43-4.48-8.46-6.88s-6.33-4.81-9.77-7.24-7.08-4.84-10.78-7.26-7.57-4.71-11.5-6.9l-2.92-1.67-3-1.6c-2-1.08-4-2.09-5.93-3.08-4-2-7.87-3.88-11.74-5.57-1.91-.88-3.84-1.65-5.7-2.44l-2.78-1.18-2.74-1.06c-3.59-1.43-7.05-2.63-10.22-3.79l-4.61-1.52c-1.46-.5-2.85-1-4.17-1.34-2.64-.77-4.92-1.54-6.83-2l-6-1.67,6.13,1.1c2,.34,4.29.92,7,1.52s5.7,1.44,9,2.33,6.8,2,10.48,3.34l2.8,1,2.85,1.07c1.92.72,3.87,1.48,5.83,2.32s4,1.65,6,2.58,4,1.81,6,2.83,4,2,6,3.07l3,1.59,3,1.67c4,2.25,7.82,4.66,11.59,7.08s7.34,5,10.75,7.55S169,476.55,172,479s5.74,5,8.21,7.33a158.69,158.69,0,0,1,11.39,11.85c1.31,1.49,2.27,2.72,2.93,3.55Z"></path><rect class="cls-7" x="509.64" y="115.88" width="214.9" height="161.85" rx="10.36"></rect><rect class="cls-8" x="507.64" y="113.88" width="214.9" height="161.85" rx="10.36"></rect><path class="cls-9" d="M518,113.88H712.18a10.36,10.36,0,0,1,10.36,10.36v10.28a0,0,0,0,1,0,0H507.64a0,0,0,0,1,0,0V124.24A10.36,10.36,0,0,1,518,113.88Z"></path><path class="cls-8" d="M528.75,124.2a5,5,0,1,1-5-5A5,5,0,0,1,528.75,124.2Z"></path><path class="cls-8" d="M548.2,124.2a5,5,0,1,1-5-5A5,5,0,0,1,548.2,124.2Z"></path><path class="cls-8" d="M567.65,124.2a5,5,0,1,1-5-5A5,5,0,0,1,567.65,124.2Z"></path><circle class="cls-10" cx="533.49" cy="152.99" r="13.05"></circle><path class="cls-10" d="M657.43,145.87h-91.8a3,3,0,0,1-3-3h0a3,3,0,0,1,3-3h91.8a3,3,0,0,1,3,3h0A3,3,0,0,1,657.43,145.87Z"></path><path class="cls-10" d="M657.43,156h-91.8a3,3,0,0,1-3-3h0a3,3,0,0,1,3-3h91.8a3,3,0,0,1,3,3h0A3,3,0,0,1,657.43,156Z"></path><path class="cls-7" d="M608.57,166H565.63a3,3,0,0,1-3-3h0a3,3,0,0,1,3-3h42.94a3,3,0,0,1,3,3h0A3,3,0,0,1,608.57,166Z"></path><circle class="cls-11" cx="533.49" cy="187.8" r="13.05" transform="translate(262.66 684.32) rotate(-80.78)"></circle><path class="cls-11" d="M565.63,174.75h91.8a3,3,0,0,1,3,3v0a3,3,0,0,1-3,3h-91.8a3,3,0,0,1-3-3v0a3,3,0,0,1,3-3Z"></path><path class="cls-11" d="M657.43,190.76h-91.8a3,3,0,0,1-3-3h0a3,3,0,0,1,3-3h91.8a3,3,0,0,1,3,3h0A3,3,0,0,1,657.43,190.76Z"></path><path class="cls-11" d="M608.57,200.84H565.63a3,3,0,0,1-3-3h0a3,3,0,0,1,3-3h42.94a3,3,0,0,1,3,3h0A3,3,0,0,1,608.57,200.84Z"></path><circle class="cls-10" cx="533.49" cy="222.61" r="13.05" transform="translate(228.3 713.55) rotate(-80.78)"></circle><path class="cls-10" d="M657.43,215.49h-91.8a3,3,0,0,1-3-3h0a3,3,0,0,1,3-3h91.8a3,3,0,0,1,3,3h0A3,3,0,0,1,657.43,215.49Z"></path><path class="cls-10" d="M565.63,219.64h91.8a3,3,0,0,1,3,3v0a3,3,0,0,1-3,3h-91.8a3,3,0,0,1-3-3v0a3,3,0,0,1,3-3Z"></path><path class="cls-7" d="M608.57,235.65H565.63a3,3,0,0,1-3-3h0a3,3,0,0,1,3-3h42.94a3,3,0,0,1,3,3h0A3,3,0,0,1,608.57,235.65Z"></path><circle class="cls-10" cx="533.49" cy="257.42" r="13.05" transform="translate(-57.9 223.75) rotate(-22.5)"></circle><path class="cls-10" d="M657.43,250.3h-91.8a3,3,0,0,1-3-3h0a3,3,0,0,1,3-3h91.8a3,3,0,0,1,3,3h0A3,3,0,0,1,657.43,250.3Z"></path><path class="cls-10" d="M657.43,260.38h-91.8a3,3,0,0,1-3-3h0a3,3,0,0,1,3-3h91.8a3,3,0,0,1,3,3h0A3,3,0,0,1,657.43,260.38Z"></path><rect class="cls-7" x="562.67" y="264.53" width="48.86" height="5.93" rx="2.96"></rect><path class="cls-9" d="M668.87,130.87a.63.63,0,0,0-.63.63V275.73h1.27V131.5A.64.64,0,0,0,668.87,130.87Z"></path><rect class="cls-9" x="674.51" y="143.49" width="21.11" height="17.43" rx="2.17"></rect><path class="cls-9" d="M715.15,150.21H699.49a1.22,1.22,0,0,1-1.22-1.22h0a1.22,1.22,0,0,1,1.22-1.23h15.66a1.23,1.23,0,0,1,1.22,1.23h0A1.22,1.22,0,0,1,715.15,150.21Z"></path><path class="cls-9" d="M715.15,156.66H699.49a1.22,1.22,0,0,1-1.22-1.23h0a1.22,1.22,0,0,1,1.22-1.23h15.66a1.23,1.23,0,0,1,1.22,1.23h0A1.23,1.23,0,0,1,715.15,156.66Z"></path><rect class="cls-9" x="674.51" y="168.99" width="21.11" height="17.43" rx="2.17"></rect><path class="cls-9" d="M715.15,175.71H699.49a1.22,1.22,0,0,1-1.22-1.22h0a1.22,1.22,0,0,1,1.22-1.23h15.66a1.23,1.23,0,0,1,1.22,1.23h0A1.22,1.22,0,0,1,715.15,175.71Z"></path><path class="cls-9" d="M715.15,182.15H699.49a1.21,1.21,0,0,1-1.22-1.22h0a1.22,1.22,0,0,1,1.22-1.23h15.66a1.23,1.23,0,0,1,1.22,1.23h0A1.22,1.22,0,0,1,715.15,182.15Z"></path><rect class="cls-11" x="674.51" y="194.49" width="21.11" height="17.43" rx="2.17"></rect><path class="cls-11" d="M715.15,201.21H699.49a1.22,1.22,0,0,1-1.22-1.23h0a1.22,1.22,0,0,1,1.22-1.22h15.66a1.22,1.22,0,0,1,1.22,1.22h0A1.23,1.23,0,0,1,715.15,201.21Z"></path><path class="cls-7" d="M715.15,207.65H699.49a1.22,1.22,0,0,1-1.22-1.22h0a1.22,1.22,0,0,1,1.22-1.23h15.66a1.23,1.23,0,0,1,1.22,1.23h0A1.22,1.22,0,0,1,715.15,207.65Z"></path><rect class="cls-9" x="674.51" y="219.99" width="21.11" height="17.43" rx="2.17"></rect><path class="cls-9" d="M715.15,226.71H699.49a1.22,1.22,0,0,1-1.22-1.23h0a1.22,1.22,0,0,1,1.22-1.22h15.66a1.22,1.22,0,0,1,1.22,1.22h0A1.23,1.23,0,0,1,715.15,226.71Z"></path><path class="cls-9" d="M715.15,233.15H699.49a1.22,1.22,0,0,1-1.22-1.22h0a1.22,1.22,0,0,1,1.22-1.23h15.66a1.23,1.23,0,0,1,1.22,1.23h0A1.22,1.22,0,0,1,715.15,233.15Z"></path><rect class="cls-9" x="674.51" y="245.49" width="21.11" height="17.43" rx="2.17"></rect><rect class="cls-9" x="698.27" y="249.76" width="18.11" height="2.45" rx="1.23"></rect><path class="cls-9" d="M715.15,258.65H699.49a1.22,1.22,0,0,1-1.22-1.22h0a1.22,1.22,0,0,1,1.22-1.23h15.66a1.23,1.23,0,0,1,1.22,1.23h0A1.22,1.22,0,0,1,715.15,258.65Z"></path><rect class="cls-8" x="242.99" y="350.97" width="332.51" height="31.8"></rect><rect class="cls-10" x="449.73" y="450.32" width="128.05" height="49.68"></rect><path class="cls-8" d="M538.42,500H489.08a7.16,7.16,0,0,1,7.05-5.93h35.24a7.15,7.15,0,0,1,7,5.93Z"></path><rect class="cls-10" x="449.73" y="400.64" width="128.05" height="49.68"></rect><path class="cls-8" d="M538.42,450.32H489.08a7.16,7.16,0,0,1,7.05-5.93h35.24a7.15,7.15,0,0,1,7,5.93Z"></path><line class="cls-12" x1="455.66" y1="450.32" x2="571.85" y2="450.32"></line><rect class="cls-10" x="449.73" y="350.97" width="128.05" height="49.68"></rect><path class="cls-8" d="M538.42,400.64H489.08a7.17,7.17,0,0,1,7.05-5.93h35.24a7.16,7.16,0,0,1,7,5.93Z"></path><line class="cls-12" x1="455.66" y1="400.64" x2="571.85" y2="400.64"></line><rect class="cls-8" x="249" y="381.86" width="16.65" height="118.14"></rect><polygon class="cls-13" points="577.78 350.96 577.78 370 242.99 358 242.99 350.96 577.78 350.96"></polygon><path class="cls-8" d="M595.8,351H225a8.48,8.48,0,0,1-8.48-8.48h0A8.48,8.48,0,0,1,225,334H595.8a8.48,8.48,0,0,1,8.47,8.48h0A8.48,8.48,0,0,1,595.8,351Z"></path><rect class="cls-14" x="395.82" y="308.49" width="29.13" height="17.83"></rect><polygon class="cls-13" points="424.95 308.49 424.95 313.3 395.82 315.26 395.82 308.49 424.95 308.49"></polygon><path class="cls-14" d="M426.73,326.26H394a12.11,12.11,0,0,0-11.3,7.75H438A12.11,12.11,0,0,0,426.73,326.26Z"></path><path class="cls-8" d="M452.94,151.05v15.36a3.65,3.65,0,0,1-3.65,3.65H426.65a3.65,3.65,0,0,1-3.61-3.25c0-.14,0-.27,0-.4V151.05a3.63,3.63,0,0,1,3.64-3.64h22.64a3.68,3.68,0,0,1,1.89.53A3.6,3.6,0,0,1,452.94,151.05Z"></path><g class="cls-15"><polygon class="cls-16" points="437.44 147.41 423.01 161.83 423.01 155.42 431.02 147.41 437.44 147.41"></polygon><polygon class="cls-17" points="452.94 157.07 452.94 163.48 446.38 170.06 439.97 170.06 452.94 157.07"></polygon><path class="cls-14" d="M451.18,147.94l-22.11,22.12h-2.42a3.65,3.65,0,0,1-3.61-3.25l19.4-19.4h6.85A3.68,3.68,0,0,1,451.18,147.94Z"></path></g><rect class="cls-14" x="436.55" y="151.68" width="13.6" height="13.6" rx="2.2"></rect><rect class="cls-7" x="438.03" y="153.15" width="10.65" height="10.65" rx="0.95"></rect><rect class="cls-10" x="439.56" y="154.68" width="7.6" height="7.6" rx="3.01"></rect><circle class="cls-10" cx="430.85" cy="156.39" r="1.87"></circle><circle class="cls-10" cx="430.85" cy="162.32" r="1.87"></circle><path class="cls-10" d="M440.33,165.28h6.05a0,0,0,0,1,0,0v.62a1.36,1.36,0,0,1-1.36,1.36h-3.33a1.36,1.36,0,0,1-1.36-1.36v-.62A0,0,0,0,1,440.33,165.28Z"></path><path class="cls-14" d="M433.91,145.87H442a1.21,1.21,0,0,1,1.21,1.21v.32a0,0,0,0,1,0,0H432.7a0,0,0,0,1,0,0v-.32A1.21,1.21,0,0,1,433.91,145.87Z"></path><path class="cls-8" d="M435.49,171.16h5a0,0,0,0,1,0,0v1.52a1.33,1.33,0,0,1-1.33,1.33h-2.31a1.33,1.33,0,0,1-1.33-1.33v-1.52A0,0,0,0,1,435.49,171.16Z"></path><path class="cls-8" d="M436.46,176.8h3a1,1,0,0,1,1,1v1.88a0,0,0,0,1,0,0h-5a0,0,0,0,1,0,0v-1.88A1,1,0,0,1,436.46,176.8Z"></path><rect class="cls-7" x="436.84" y="174.01" width="2.28" height="2.79"></rect><path class="cls-14" d="M432.61,170.06h10.73a0,0,0,0,1,0,0v.78a.74.74,0,0,1-.74.74h-9.24a.74.74,0,0,1-.74-.74v-.78A0,0,0,0,1,432.61,170.06Z"></path><rect class="cls-8" x="334.55" y="178.89" width="151.67" height="129.6" rx="7.57"></rect><rect class="cls-10" x="339.92" y="183.82" width="140.93" height="108.47" rx="2.16"></rect><path class="cls-11" d="M439.66,230.54h0A11.63,11.63,0,0,1,428,218.91v-6.83a11.63,11.63,0,0,1,11.63-11.63h0a11.63,11.63,0,0,1,11.63,11.63v6.83A11.63,11.63,0,0,1,439.66,230.54Z"></path><path class="cls-8" d="M439.37,228h.41a16.83,16.83,0,0,1,16.83,16.83v14.69a0,0,0,0,1,0,0H422.54a0,0,0,0,1,0,0V244.82A16.83,16.83,0,0,1,439.37,228Z"></path><path class="cls-18" d="M442.86,229.3c0,.88-6.23.88-6.23,0l.6-6.84h5Z"></path><path class="cls-18" d="M430.83,219.49h0a2.31,2.31,0,0,1-2.31-2.31V216.1a2.31,2.31,0,0,1,2.31-2.31h0a2.31,2.31,0,0,1,2.31,2.31v1.08A2.31,2.31,0,0,1,430.83,219.49Z"></path><path class="cls-18" d="M447.87,219.49h0a2.31,2.31,0,0,1-2.31-2.31V216.1a2.31,2.31,0,0,1,2.31-2.31h0a2.31,2.31,0,0,1,2.31,2.31v1.08A2.31,2.31,0,0,1,447.87,219.49Z"></path><path class="cls-19" d="M439.58,226.25h0a8.3,8.3,0,0,1-8.3-8.29v-4.87a8.3,8.3,0,0,1,8.3-8.29h0a8.29,8.29,0,0,1,8.29,8.29V218A8.29,8.29,0,0,1,439.58,226.25Z"></path><path class="cls-11" d="M430,213.79h0a6.06,6.06,0,0,0,6.06-6.06V204.8l-4.27,2.68Z"></path><path class="cls-11" d="M436.65,204.43l-.58.37h0a9,9,0,0,0,9,9h3.68v-4.68l-5.45-4.31Z"></path><path class="cls-13" d="M486.22,292.29v8.63a7.57,7.57,0,0,1-7.57,7.57H342.12a7.57,7.57,0,0,1-7.57-7.57v-8.63Z"></path><path class="cls-7" d="M335.25,300.92V293h-.7v7.92a7.57,7.57,0,0,0,7.57,7.57v-.7A6.88,6.88,0,0,1,335.25,300.92Z"></path><polygon class="cls-14" points="485.52 293 486.22 293 486.22 292.29 334.55 292.29 334.55 293 335.25 293 485.52 293"></polygon><circle class="cls-7" cx="410.39" cy="299.99" r="3.5"></circle><g class="cls-20"><rect class="cls-13" x="404.89" y="189.08" width="22.1" height="5.51" rx="2.18"></rect><rect class="cls-13" x="450.16" y="189.08" width="26.87" height="5.51" rx="2.18"></rect><path class="cls-11" d="M441.83,253.28h35.06a1.06,1.06,0,0,0,1.06-1.06h0a1.06,1.06,0,0,0-1.06-1.05H404a1,1,0,0,0-1.05,1.05h0a1.05,1.05,0,0,0,1.05,1.06h37.84"></path><rect class="cls-11" x="404.11" y="246.38" width="1.06" height="3.18" rx="0.42"></rect><rect class="cls-11" x="406.23" y="246.38" width="1.06" height="3.18" rx="0.42"></rect><path class="cls-11" d="M409.17,249.31v-2.67a.13.13,0,0,1,.2-.1l1.74,1.34a.13.13,0,0,1,0,.2l-1.74,1.33A.12.12,0,0,1,409.17,249.31Z"></path><rect class="cls-11" x="411.63" y="246.38" width="1.06" height="3.18" rx="0.42"></rect><path class="cls-11" d="M464.56,246.65v2.65a.11.11,0,0,1-.17.09l-1.12-.87-.07,0h-.82a.11.11,0,0,1-.11-.11v-.83a.1.1,0,0,1,.11-.1h.82a.09.09,0,0,0,.07,0l1.12-.86A.1.1,0,0,1,464.56,246.65Z"></path><path class="cls-11" d="M465.82,246.72a1.85,1.85,0,0,1,.52,1.26,1.8,1.8,0,0,1-.52,1.25.21.21,0,0,0,.29.29,2.2,2.2,0,0,0,.64-1.54,2.23,2.23,0,0,0-.64-1.55.21.21,0,0,0-.29.29Z"></path><path class="cls-11" d="M465.38,247.15a1.2,1.2,0,0,1,.34.83,1.16,1.16,0,0,1-.34.82.2.2,0,0,0,0,.29.21.21,0,0,0,.29,0,1.59,1.59,0,0,0,.45-1.11,1.56,1.56,0,0,0-.45-1.11.21.21,0,0,0-.29,0,.2.2,0,0,0,0,.29Z"></path><path class="cls-11" d="M465,247.58a.58.58,0,0,1,.16.4.55.55,0,0,1-.16.39.21.21,0,0,0,.29.29,1,1,0,0,0,.28-.68,1,1,0,0,0-.28-.69.21.21,0,0,0-.29.29Z"></path><rect class="cls-11" x="467.75" y="247.5" width="10.2" height="0.96" rx="0.38"></rect><rect class="cls-14" x="336.66" y="178.89" width="64.8" height="80.62"></rect><rect class="cls-10" x="345.11" y="189.1" width="25.36" height="18.43" rx="1.73"></rect><path class="cls-11" d="M362.49,198.32a4.7,4.7,0,1,1-4.7-4.7A4.69,4.69,0,0,1,362.49,198.32Z"></path><path class="cls-21" d="M359.08,198.58l-2,1.16a.3.3,0,0,1-.45-.26v-2.32a.3.3,0,0,1,.45-.26l2,1.16A.3.3,0,0,1,359.08,198.58Z"></path><rect class="cls-9" x="374.05" y="190.83" width="23.36" height="3.58" rx="1.42"></rect><rect class="cls-10" x="374.05" y="196" width="23.36" height="9.8" rx="3.3"></rect><rect class="cls-10" x="345.11" y="211.38" width="25.36" height="18.43" rx="1.73"></rect><path class="cls-11" d="M362.49,220.59a4.7,4.7,0,1,1-4.7-4.69A4.69,4.69,0,0,1,362.49,220.59Z"></path><path class="cls-21" d="M359.08,220.85l-2,1.16a.29.29,0,0,1-.45-.25v-2.33a.3.3,0,0,1,.45-.26l2,1.17A.29.29,0,0,1,359.08,220.85Z"></path><rect class="cls-9" x="374.05" y="213.11" width="23.36" height="3.58" rx="1.42"></rect><rect class="cls-10" x="374.05" y="218.27" width="23.36" height="9.8" rx="3.3"></rect><rect class="cls-10" x="345.11" y="233.65" width="25.36" height="18.43" rx="1.73"></rect><path class="cls-11" d="M362.49,242.87a4.7,4.7,0,1,1-4.7-4.7A4.69,4.69,0,0,1,362.49,242.87Z"></path><path class="cls-21" d="M359.08,243.13l-2,1.16a.3.3,0,0,1-.45-.26v-2.32a.3.3,0,0,1,.45-.26l2,1.16A.3.3,0,0,1,359.08,243.13Z"></path><rect class="cls-9" x="374.05" y="235.38" width="23.36" height="3.58" rx="1.42"></rect><rect class="cls-10" x="374.05" y="240.55" width="23.36" height="9.8" rx="3.3"></rect><rect class="cls-7" x="336.66" y="259.51" width="148.15" height="35.52"></rect><rect class="cls-14" x="409.52" y="264.27" width="2.43" height="26" rx="1.01"></rect><rect class="cls-14" x="422.33" y="267.99" width="25.36" height="18.43" rx="1.73"></rect><path class="cls-10" d="M439.7,277.21a4.7,4.7,0,1,1-4.7-4.7A4.7,4.7,0,0,1,439.7,277.21Z"></path><path class="cls-11" d="M436.29,277.47l-2,1.16a.3.3,0,0,1-.45-.26v-2.32a.3.3,0,0,1,.45-.26l2,1.16A.3.3,0,0,1,436.29,277.47Z"></path><rect class="cls-14" x="451.26" y="269.73" width="23.36" height="3.58" rx="1.42"></rect><rect class="cls-14" x="451.26" y="274.89" width="23.36" height="9.8" rx="3.3"></rect><rect class="cls-14" x="345.28" y="267.99" width="25.36" height="18.43" rx="1.73"></rect><path class="cls-10" d="M362.66,277.21a4.7,4.7,0,1,1-4.7-4.7A4.71,4.71,0,0,1,362.66,277.21Z"></path><path class="cls-11" d="M359.25,277.47l-2,1.16a.3.3,0,0,1-.45-.26v-2.32a.3.3,0,0,1,.45-.26l2,1.16A.31.31,0,0,1,359.25,277.47Z"></path><rect class="cls-14" x="374.22" y="269.73" width="23.36" height="3.58" rx="1.42"></rect><rect class="cls-14" x="374.22" y="274.89" width="23.36" height="9.8" rx="3.3"></rect></g><g class="cls-22"><path class="cls-23" d="M372.33,183.67l-33,33a2.8,2.8,0,0,1-4.78-2v-2.84a2.76,2.76,0,0,1,.82-2l30.16-30.16a2.78,2.78,0,0,1,2-.82h2.84A2.8,2.8,0,0,1,372.33,183.67Z"></path><path class="cls-23" d="M486.22,267.81h0a1.44,1.44,0,0,1-.41,1l-23.05,23.05a1.42,1.42,0,0,1-1,.42h0a1.43,1.43,0,0,1-1-2.44l23.06-23.05A1.42,1.42,0,0,1,486.22,267.81Z"></path><path class="cls-23" d="M403.27,186.76l-60.85,60.85a4.61,4.61,0,0,1-7.87-3.26V229.48a4.61,4.61,0,0,1,1.35-3.26l46-46a4.6,4.6,0,0,1,3.26-1.35H400A4.61,4.61,0,0,1,403.27,186.76Z"></path><path class="cls-23" d="M486.22,240.32v6.18a1.91,1.91,0,0,1-.55,1.34l-43.9,43.89a1.86,1.86,0,0,1-1.34.56h-6.18a1.9,1.9,0,0,1-1.34-3.24L483,239A1.9,1.9,0,0,1,486.22,240.32Z"></path></g><path class="cls-8" d="M539.21,302.92H521.8v20.95h17.41a3.55,3.55,0,0,0,3.55-3.55V306.46A3.54,3.54,0,0,0,539.21,302.92Zm.5,16.95a1,1,0,0,1-1,1H524.59V305.93H538.7a1,1,0,0,1,1,1Z"></path><path class="cls-9" d="M530.7,297.58a2.46,2.46,0,0,1,2.46,2.6L531.48,330l-.13,2.26a1.84,1.84,0,0,1-1.84,1.74H508.58a1.84,1.84,0,0,1-1.84-1.74l-.13-2.26-1.69-29.83a2.47,2.47,0,0,1,2.47-2.6Z"></path><path class="cls-11" d="M531.48,330l-.13,2.26a1.84,1.84,0,0,1-1.84,1.74H508.58a1.84,1.84,0,0,1-1.84-1.74l-.13-2.26Z"></path><path class="cls-18" d="M215.21,349.57c-15-6.64,7.38-80.13,7.38-80.13s-15-3.48-16.92-5.06-3.64-11.86-3.17-14.23,7.75,5.85,8.54,6.17,10,2.53,10,2.53-2.53-3-3-5.38,5.68,1.58,7.43,3,9.33,3.79,11.23,5.85,1.8,11.25.35,25.17-.48,34.34-2.06,43.35S228.71,355.53,215.21,349.57Z"></path><path class="cls-24" d="M217.21,313.72s-5.69,17.71-5.38,28.46,16.74,18.29,24.61-12.39l2.59-11Z"></path><path class="cls-14" d="M258.07,263.61l-8.8,29.67-9,30.23-1.89,6.34a65.1,65.1,0,0,1-13.57-1.55c-9.25-2.14-13-5.72-13-5.72q.75-3,1.57-5.79c5-17.35,11.87-31.33,22.92-41.13A57.88,57.88,0,0,1,257,264c.29-.12.6-.22.9-.31Z"></path><path class="cls-25" d="M240.29,323.51l-1.89,6.34c-19.3-.32-26.56-7.27-26.56-7.27q.75-3,1.57-5.79A61.43,61.43,0,0,0,240.29,323.51Z"></path><path class="cls-26" d="M444.67,500h-94s-.95-15.18-14.23-18-12.65-1.89-64.83-9.48-42.07-56.62-42.07-56.62l38-1.9s42.35.32,80.35,1.68c27.92,1,53.49,2.55,58.18,5C417.09,426.31,444.67,500,444.67,500Z"></path><path class="cls-27" d="M350.67,500H432c-22.63-11.66-34-33.41-43.81-42.38-13.12-12-72.8-18.34-72.8-18.34l32.5-23.63c-38-1.36-80.35-1.68-80.35-1.68l-38,1.9s-10.11,49,42.07,56.62,51.55,6.64,64.83,9.48S350.67,500,350.67,500Z"></path><path class="cls-26" d="M328.22,425.05l-103.1.63s-5.49-55.27-.29-97.38c.09-.75.19-1.5.29-2.24,2.39-17.8,5.67-32,11-42.55C241,273.79,247.68,267.24,257,264c.29-.12.6-.22.9-.31l.19-.06a48.26,48.26,0,0,1,14.73-2.07,33.38,33.38,0,0,1,18.61,5.6c5.84,3.84,10.94,9.64,15,17.29a75.32,75.32,0,0,1,5.84,15,118.38,118.38,0,0,1,4,28.23c0,.92.06,1.85.1,2.78.66,17.57,2.81,36.76,5.1,53.23C324.67,407.08,328.22,425.05,328.22,425.05Z"></path><path class="cls-28" d="M306.39,284.43a19.78,19.78,0,0,1-9.65,10.93,28.51,28.51,0,0,1-9.56,3.08,44.17,44.17,0,0,1-16-.85c-9.49,1.74-20.56-4.27-20.56-4.27a11.4,11.4,0,0,1-1.31,0c-5.69-.48-11.32-4.52-13.16-9.77a10.74,10.74,0,0,1,.22-7.85A57.88,57.88,0,0,1,257,264c.29-.12.6-.22.9-.31l.19-.06a48.26,48.26,0,0,1,14.73-2.07,33.38,33.38,0,0,1,18.61,5.6,45.54,45.54,0,0,1,15.78,9.17A18.32,18.32,0,0,1,306.39,284.43Z"></path><path class="cls-28" d="M321.4,383.64a179.7,179.7,0,0,1-14.58-19.55C286.7,333.17,290.26,302,290.26,302s17.22-3.3,22-2.62a118.38,118.38,0,0,1,4,28.23c0,.92.06,1.85.1,2.78C317,348,319.11,367.17,321.4,383.64Z"></path><path class="cls-29" d="M434.38,307.4c-.87,2.14-2.11,4.64-3.42,7.09-1.6,3-3.3,5.93-4.51,8-2.18,3.8-24.17,9.47-24.17,9.47s-61.84,30.15-68.68,30.28-28.11-37.91-28.11-37.91l22-10.51L334,325.13l4.06,7a240.56,240.56,0,0,1,25.73-6.84c15.3-3.24,36.78-8.58,36.78-8.58s7.38-9.81,12.09-15.49,6.92-5.83,6.09-3-3.62,10.2-3.62,10.2,9.3-3.43,12.83-6.18,8.53-10.32,11.18-11.7S436.32,302.63,434.38,307.4Z"></path><path class="cls-18" d="M431,314.49c-1.6,3-3.3,5.93-4.51,8-2.18,3.8-24.17,9.47-24.17,9.47s-61.84,30.15-68.68,30.28-28.11-37.91-28.11-37.91l22-10.51L334,325.13c-2.92,2.84-8.28,7.37-14.27,8.95,0,0,13.64,20.39,14.35,20.75s65.35-29.29,65.35-29.29,21-4,25.56-5.7C426.87,319.16,429.05,316.9,431,314.49Z"></path><path class="cls-7" d="M334.07,320s-3.94,6.78-17.77,10.44a73.39,73.39,0,0,1-16.62,2.24s-1.27-2.95-3.07-7.48c-2.72-6.87-6.71-17.38-9.43-26.73-1-3.6-1.91-7-2.45-10-2.84-15.89,3.15-22.52,3.15-22.52,1.21.41,2.38.82,3.53,1.24a45.54,45.54,0,0,1,15.78,9.17c7.06,6.41,14.17,16.93,23.47,36.36Q332.31,316.14,334.07,320Z"></path><path class="cls-14" d="M306.39,284.43l0-.07a10.54,10.54,0,0,0-4.31-12,51.22,51.22,0,0,0-10.7-5.22c-1.15-.42-2.32-.83-3.53-1.24,0,0-6,6.63-3.15,22.52.54,3,1.41,6.42,2.45,10a28.51,28.51,0,0,0,9.56-3.08A19.78,19.78,0,0,0,306.39,284.43Z"></path><path class="cls-10" d="M334.07,320s-6.88,11.85-34.39,12.68c0,0-1.27-2.95-3.07-7.48,7.75-1.13,24.73-4.49,34.05-12.5Q332.31,316.14,334.07,320Z"></path><path class="cls-29" d="M318.7,252a2.93,2.93,0,0,1-.6.33,16.88,16.88,0,0,1-16.29-1.9L294.53,275l-25.61-7.12,5.85-25.62s-8.38-29.72,1.58-46.49c6.73-11.32,23.79-12.32,35.07-8.41,5.42,1.86,9.5,4.87,10.48,8.41C324.83,206.42,327.16,246.7,318.7,252Z"></path><path class="cls-18" d="M318.7,252a2.93,2.93,0,0,1-.6.33,16.88,16.88,0,0,1-16.29-1.9L294.53,275l-25.61-7.12,5.85-25.62s-8.38-29.72,1.58-46.49c6.73-11.32,23.79-12.32,35.07-8.41-.06,1.33-.2,2.8-.43,4.43,0,0-3,33.71-.64,47.79A17.18,17.18,0,0,0,318.7,252Z"></path><path class="cls-8" d="M330,196.86c0,.19,0,.38-.05.56-.92,8.86-7.19,7.27-7.19,7.27-.17,3.49-6.17,2.72-6.17,2.72,3.36-8.67-2.31-12.72-2.59-12.91a15.6,15.6,0,0,1,0,12.91l-2,16.13-5.93,1.07L304.77,212s-15.65,34.63-8.77,49,8.3,21.12.74,26.93S283,292.69,283,292.69c-7.35,4.74-19.09-.59-19.09-.59-8.07.11-10.08-2.14-10.08-2.14A16.82,16.82,0,0,1,240.71,283c-3-4.13-4.46-10.1-3.31-17.88,2.35-16,13.89-26.44,15-38.77s-.25-24.31,11.14-39.13,40.09-8.19,40.09-8.19C319,174.33,330.75,187.37,330,196.86Z"></path><path class="cls-7" d="M245.16,244.74a95.65,95.65,0,0,0,5.32-11.85,27.08,27.08,0,0,0,1.31-6.25c.16-2.15.24-4.32.32-6.49a89,89,0,0,1,1.24-13.08,46,46,0,0,1,4.33-12.51,51.94,51.94,0,0,1,3.45-5.67c.66-.89,1.24-1.8,2-2.68a21.12,21.12,0,0,1,2.35-2.47,27.19,27.19,0,0,1,12-5.85,50.57,50.57,0,0,1,13.19-1.17,68.72,68.72,0,0,1,13.08,1.63h-.38a22.62,22.62,0,0,1,8.1-.84,20.28,20.28,0,0,1,7.77,2.27,21.52,21.52,0,0,1,6.25,5,19.34,19.34,0,0,1,3.85,7,20.44,20.44,0,0,0-4.22-6.62,20.73,20.73,0,0,0-6.29-4.54,19.72,19.72,0,0,0-7.45-1.86,22.41,22.41,0,0,0-7.58,1l-.17.05-.21,0c-8.39-1.52-17.22-1.93-25.49,0a25.81,25.81,0,0,0-11.18,5.46,18.79,18.79,0,0,0-2.15,2.22c-.66.79-1.26,1.71-1.9,2.55a54.51,54.51,0,0,0-3.36,5.44,44.24,44.24,0,0,0-4.36,12,89,89,0,0,0-1.57,12.81c-.16,2.17-.33,4.34-.56,6.52a26.42,26.42,0,0,1-1.67,6.41A82.14,82.14,0,0,1,245.16,244.74Z"></path><path class="cls-27" d="M328.48,202.3a5.4,5.4,0,0,1-5.68,2.39c-.17,3.49-6.17,2.72-6.17,2.72,3.36-8.67-2.31-12.72-2.59-12.91a15.6,15.6,0,0,1,0,12.91l-2,16.13-5.93,1.07L304.77,212s-15.65,34.63-8.77,49,8.3,21.12.74,26.93S283,292.69,283,292.69c-7.35,4.74-19.09-.59-19.09-.59-8.07.11-10.08-2.14-10.08-2.14A16.82,16.82,0,0,1,240.71,283a48.24,48.24,0,0,1,5.76-31.62c9.48-16.26,10.81-25.32,10.78-33.1a.91.91,0,0,1,1.79-.21,40.65,40.65,0,0,1,.86,13.07,80.67,80.67,0,0,1-5.06,20.24s9.81-11.55,9.65-30.84c-.11-13.64,3.41-23,5.49-27.33a4.11,4.11,0,0,1,4.18-2.31c.68.08,1.48.15,2.38.19a4.12,4.12,0,0,1,3.58,5.75A35.27,35.27,0,0,0,277,210.31c-.15,10.57-.68,23-3.3,32.53.4-.77,7-8.21,6-28a38.79,38.79,0,0,1,4.8-20.61.9.9,0,0,1,1.66.62,48.85,48.85,0,0,0-.79,6,.66.66,0,0,0,1.3.21,28.09,28.09,0,0,1,2.8-6.82,7,7,0,0,1,5.18-3.29c1.92-.24,4.56-.6,7.18-1.08a7.17,7.17,0,0,1,8.38,5.63,26.88,26.88,0,0,1,.48,6.83,27.84,27.84,0,0,0,1-9.21,2.32,2.32,0,0,1,3.61-2.07,15,15,0,0,1,5.51,6.53.45.45,0,0,0,.87-.18,15,15,0,0,0-1.22-5.23,1.71,1.71,0,0,1,2.22-2.25,13.34,13.34,0,0,1,5,3.66A7.31,7.31,0,0,1,328.48,202.3Z"></path><ellipse class="cls-30" cx="301.17" cy="217.2" rx="14.43" ry="17.43"></ellipse><path class="cls-11" d="M290.26,177.43c2.67,2.08,9.13,8.9,9.81,26.32l8.69,1.47s-.36-17.93-8-27.18a1.93,1.93,0,0,0-.87-.59,20,20,0,0,0-9.39-1.08A.6.6,0,0,0,290.26,177.43Z"></path><ellipse class="cls-9" cx="305.64" cy="217.69" rx="12.97" ry="15.66"></ellipse><ellipse class="cls-11" cx="306.82" cy="217.69" rx="9.4" ry="11.35"></ellipse><polygon class="cls-14" points="196.15 468.39 187.74 500 207.4 500 214.51 473.27 196.15 468.39"></polygon><path class="cls-8" d="M389.15,477.47c-15.34,13-45.74,22.53-98.56,22.53-114.86,0-135.26-26.21-145.54-106.12-.2-1.5-.39-3-.58-4.58C134.35,305.81,209,241.29,245,322.89s76.09,76.87,117,85.39C392.08,414.53,418.8,452.39,389.15,477.47Z"></path><path class="cls-27" d="M389.15,477.47c-15.34,13-45.74,22.53-98.56,22.53-114.86,0-135.26-26.21-145.54-106.12,11.18-10.32,34.2-18.2,74.86,20.09C276.52,467.29,390.42,430.66,389.15,477.47Z"></path><path class="cls-14" d="M278.76,486.6l3.63,13.4H262.72l-2.29-8.42a9.49,9.49,0,0,1,6.72-11.67h0A9.51,9.51,0,0,1,278.76,486.6Z"></path><path class="cls-14" d="M363.92,486.6l3.63,13.4H347.89l-2.29-8.42a9.49,9.49,0,0,1,6.72-11.67h0A9.49,9.49,0,0,1,363.92,486.6Z"></path><path class="cls-4" d="M671.8,472.45a55.48,55.48,0,0,1,55.47,55.47H616.32A55.48,55.48,0,0,1,671.8,472.45Z"></path><path class="cls-5" d="M716.62,488.45a39.47,39.47,0,0,1,39.47,39.47H677.15A39.47,39.47,0,0,1,716.62,488.45Z"></path><path class="cls-4" d="M591.62,536.22s-18.06-126,164.79-168.32c0,0-41.72,20.77-70.92,81S620.63,530.74,591.62,536.22Z"></path><path class="cls-6" d="M603.33,520c21.45-51.76,60.84-96.19,107.16-127.27A302,302,0,0,1,737.43,377c-56.61,34.16-104.6,83.58-134.1,143Z"></path><path class="cls-5" d="M586.81,518.41s-43-97.35,94.67-172.76c0,0-28.9,26.14-38.8,81.27S608.94,507.44,586.81,518.41Z"></path><path class="cls-6" d="M592.57,502.66C598.16,454.21,621,408.09,653.49,372q7.07-7.71,14.76-14.76A340.36,340.36,0,0,0,642,389.43c-23.87,33.84-41.49,72.49-49.41,113.23Z"></path><path class="cls-5" d="M582.74,533.85s19.7-125.71,206.93-112.56c0,0-46,7.62-91.58,56.67S612.09,537.13,582.74,533.85Z"></path><path class="cls-6" d="M598.71,521.74c35.7-43.19,86.39-74.11,139.79-90.23a305.81,305.81,0,0,1,30.36-7.11c-64.14,16.05-124.52,49.22-170.15,97.34Z"></path></g></g></svg>