<svg xmlns="http://www.w3.org/2000/svg" xmlns:xlink="http://www.w3.org/1999/xlink" id="Illustration" viewBox="0 0 300 300"><defs><style>.cls-1{opacity:0.17;}.cls-2{fill:#dce4f7;}.cls-3{opacity:0.3;}.cls-4{fill:#91b3fa;}.cls-5{fill:#bdd0fb;}.cls-6{fill:url(#linear-gradient);}.cls-7{fill:url(#linear-gradient-2);}.cls-8{fill:url(#linear-gradient-3);}.cls-9{fill:url(#linear-gradient-4);}.cls-10{fill:url(#linear-gradient-5);}.cls-11{fill:#7d97f4;}.cls-12,.cls-32{fill:#fff;}.cls-12{opacity:0.56;}.cls-13{fill:url(#linear-gradient-6);}.cls-14{fill:url(#linear-gradient-7);}.cls-15{fill:url(#linear-gradient-8);}.cls-16{fill:url(#linear-gradient-9);}.cls-17{fill:url(#linear-gradient-10);}.cls-18{fill:url(#linear-gradient-11);}.cls-19{fill:url(#linear-gradient-12);}.cls-20{fill:url(#linear-gradient-13);}.cls-21{fill:#d13245;}.cls-22{fill:url(#linear-gradient-14);}.cls-23{fill:url(#linear-gradient-15);}.cls-24{fill:url(#linear-gradient-16);}.cls-25{fill:url(#linear-gradient-17);}.cls-26{fill:url(#linear-gradient-18);}.cls-27{fill:url(#linear-gradient-19);}.cls-28{fill:url(#linear-gradient-20);}.cls-29{fill:url(#linear-gradient-21);}.cls-30{fill:url(#linear-gradient-22);}.cls-31{fill:url(#linear-gradient-23);}.cls-32{opacity:0.47;}</style><linearGradient id="linear-gradient" x1="180.71" y1="151.69" x2="191.3" y2="151.69" gradientUnits="userSpaceOnUse"><stop offset="0" stop-color="#fe7062"></stop><stop offset="1" stop-color="#ff928e"></stop></linearGradient><linearGradient id="linear-gradient-2" x1="-2865.47" y1="21.72" x2="-2888.87" y2="60.88" gradientTransform="matrix(-1, 0, 0, 1, -2690.61, 0)" gradientUnits="userSpaceOnUse"><stop offset="0" stop-color="#e1473d"></stop><stop offset="1" stop-color="#e9605a"></stop></linearGradient><linearGradient id="linear-gradient-3" x1="-2865.72" y1="25.47" x2="-2883.9" y2="55.91" gradientTransform="matrix(-1, 0, 0, 1, -2690.61, 0)" xlink:href="#linear-gradient"></linearGradient><linearGradient id="linear-gradient-4" x1="467.87" y1="-187.66" x2="467.87" y2="-117.07" gradientTransform="matrix(0.95, 0.13, -0.14, 0.99, -297.8, 149.2)" xlink:href="#linear-gradient-2"></linearGradient><linearGradient id="linear-gradient-5" x1="-2945.74" y1="-197.13" x2="-2950.49" y2="-137.8" gradientTransform="matrix(-0.94, -0.15, -0.15, 0.99, -2642.34, -190.83)" xlink:href="#linear-gradient"></linearGradient><linearGradient id="linear-gradient-6" x1="200.95" y1="-41.89" x2="201.5" y2="19.7" gradientUnits="userSpaceOnUse"><stop offset="0" stop-color="#4f52ff"></stop><stop offset="1" stop-color="#4042e2"></stop></linearGradient><linearGradient id="linear-gradient-7" x1="257.21" y1="48.91" x2="358.04" y2="-29.03" xlink:href="#linear-gradient-6"></linearGradient><linearGradient id="linear-gradient-8" x1="188.04" y1="56.15" x2="178.64" y2="99.49" gradientTransform="matrix(1, 0, 0, 1, 0, 0)" xlink:href="#linear-gradient-2"></linearGradient><linearGradient id="linear-gradient-9" x1="186.05" y1="57.69" x2="186.26" y2="67.23" gradientTransform="matrix(1, 0, 0, 1, 0, 0)" xlink:href="#linear-gradient-2"></linearGradient><linearGradient id="linear-gradient-10" x1="187.45" y1="89.33" x2="178.39" y2="131.08" gradientTransform="matrix(1, 0, 0, 1, 0, 0)" xlink:href="#linear-gradient-2"></linearGradient><linearGradient id="linear-gradient-11" x1="185.53" y1="90.81" x2="185.73" y2="100" gradientTransform="matrix(1, 0, 0, 1, 0, 0)" xlink:href="#linear-gradient-2"></linearGradient><linearGradient id="linear-gradient-12" x1="187.72" y1="118.43" x2="178.31" y2="161.8" gradientTransform="matrix(1, 0, 0, 1, 0, 0)" xlink:href="#linear-gradient-2"></linearGradient><linearGradient id="linear-gradient-13" x1="185.73" y1="119.96" x2="185.94" y2="129.51" gradientTransform="matrix(1, 0, 0, 1, 0, 0)" xlink:href="#linear-gradient-2"></linearGradient><linearGradient id="linear-gradient-14" x1="11082.55" y1="79.56" x2="11132.14" y2="79.56" gradientTransform="translate(-10938.98 -43.08) rotate(0.54)" gradientUnits="userSpaceOnUse"><stop offset="0" stop-color="#febbba"></stop><stop offset="1" stop-color="#ff928e"></stop></linearGradient><linearGradient id="linear-gradient-15" x1="-4966.93" y1="70.79" x2="-4933.66" y2="146.49" gradientTransform="matrix(-1, -0.01, -0.01, 1, -4784.82, 16.31)" xlink:href="#linear-gradient-14"></linearGradient><linearGradient id="linear-gradient-16" x1="11131.9" y1="46.51" x2="11145.79" y2="25.16" xlink:href="#linear-gradient-14"></linearGradient><linearGradient id="linear-gradient-17" x1="10974.05" y1="150.26" x2="11036.8" y2="150.26" xlink:href="#linear-gradient-14"></linearGradient><linearGradient id="linear-gradient-18" x1="11022.24" y1="83.18" x2="11047.05" y2="83.18" xlink:href="#linear-gradient-14"></linearGradient><linearGradient id="linear-gradient-19" x1="3484.34" y1="6097.69" x2="3475.07" y2="6067.11" gradientTransform="matrix(0.75, -0.66, 0.66, 0.75, -6525.1, -2162.49)" xlink:href="#linear-gradient-14"></linearGradient><linearGradient id="linear-gradient-20" x1="3475.98" y1="6044.41" x2="3483.73" y2="6088.64" gradientTransform="matrix(0.75, -0.66, 0.66, 0.75, -6525.1, -2162.49)" gradientUnits="userSpaceOnUse"><stop offset="0" stop-color="#09005d"></stop><stop offset="1" stop-color="#1a0f91"></stop></linearGradient><linearGradient id="linear-gradient-21" x1="3474.87" y1="6097.54" x2="3466.52" y2="6070.03" gradientTransform="matrix(0.75, -0.66, 0.66, 0.75, -6525.1, -2162.49)" xlink:href="#linear-gradient-14"></linearGradient><linearGradient id="linear-gradient-22" x1="10786.58" y1="171.56" x2="10821.21" y2="315.83" gradientTransform="translate(-10673.36)" xlink:href="#linear-gradient-20"></linearGradient><linearGradient id="linear-gradient-23" x1="10762.85" y1="209.72" x2="10782.47" y2="209.72" gradientTransform="translate(-10673.36)" xlink:href="#linear-gradient-14"></linearGradient></defs><g class="cls-1"><path class="cls-2" d="M277.76,160.15s6,19.53,2,30-1.6-16.22-8.45-28.83S274.86,151.66,277.76,160.15Z"></path><path class="cls-2" d="M140.34,31.56s-41.11-9-68.16,5.31,8.08-27.1,63.18-18.41S140.34,31.56,140.34,31.56Z"></path><path class="cls-2" d="M260,212.41c-11.34,12.87-14.94-24.64-37-31-28.6-8.21-50.63,28.06-59.64,57.64-5.7,18.74-13.7,76.59-44.3,18.31C97.08,215.57,94.58,85,58.41,125.18,4.74,184.78-1.88,64,86.6,38.56,163.43,16.45,311.37,154,260,212.41Z"></path><path class="cls-2" d="M58.24,41.61c-3.28.25-9,4.77-8.57,7.46s5.33-.82,6.55-1.92C58.37,45.21,61.51,41.35,58.24,41.61Z"></path><path class="cls-2" d="M278.75,195.81s-.5,6.5-2.79,7.42-1-3.84-.55-5.27C276.05,196.15,278.53,193.64,278.75,195.81Z"></path></g><g class="cls-3"><path class="cls-4" d="M89.09,50a.84.84,0,0,1-1.18.09c-.67-.59-1.38-1.16-2.1-1.69a.83.83,0,0,1-.19-1.15h0a.83.83,0,0,1,1.16-.18c.76.56,1.51,1.15,2.22,1.77A.84.84,0,0,1,89.14,50Zm-7-3.93c-.79-.43-1.61-.82-2.42-1.18a.83.83,0,1,1,.66-1.52c.86.37,1.72.79,2.55,1.23a.84.84,0,0,1,.33,1.13.41.41,0,0,1,0,.09A.83.83,0,0,1,82.11,46.08Zm-6.55-2.64c-.86-.24-1.74-.44-2.62-.61a.81.81,0,0,1-.66-1,.83.83,0,0,1,1-.67c.92.17,1.85.39,2.76.64a.83.83,0,0,1,.58,1,1,1,0,0,1-.12.26A.84.84,0,0,1,75.56,43.44Zm-7-1.1a26.82,26.82,0,0,0-2.69,0,.83.83,0,0,1-.07-1.66c.94,0,1.9,0,2.84,0a.83.83,0,0,1,.79.87.8.8,0,0,1-.15.44A.83.83,0,0,1,68.59,42.34Zm-7,.47c-.88.16-1.76.36-2.63.59a.83.83,0,0,1-.43-1.61c.91-.24,1.84-.45,2.77-.62a.83.83,0,0,1,1,.67.84.84,0,0,1-.67,1Zm-6.76,2c-.82.35-1.64.74-2.43,1.16a.84.84,0,0,1-1.13-.35.83.83,0,0,1,.35-1.12c.83-.44,1.69-.85,2.56-1.22a.83.83,0,0,1,1.09.44.81.81,0,0,1-.09.8A.72.72,0,0,1,54.79,44.83ZM35.17,68.67a.82.82,0,0,1-.66-1c.17-.92.39-1.85.64-2.76a.84.84,0,0,1,1.61.45c-.25.86-.45,1.74-.62,2.62a.83.83,0,0,1-.13.32A.84.84,0,0,1,35.17,68.67ZM48.65,48.3A26.22,26.22,0,0,0,46.54,50a.84.84,0,0,1-1.18-.09.83.83,0,0,1,.09-1.17c.71-.62,1.46-1.21,2.22-1.76a.82.82,0,0,1,1.16.19.81.81,0,0,1,0,1A1.19,1.19,0,0,1,48.65,48.3ZM37.13,61.69a.83.83,0,0,1-.43-1.09c.38-.86.79-1.72,1.24-2.55a.83.83,0,0,1,1.47.79c-.43.79-.83,1.61-1.19,2.43a.64.64,0,0,1-.08.14A.81.81,0,0,1,37.13,61.69Zm6.3-8.64c-.58.67-1.15,1.38-1.68,2.1a.83.83,0,0,1-1.35-1v0c.56-.76,1.15-1.5,1.77-2.21a.83.83,0,0,1,1.31,1Z"></path><path class="cls-4" d="M35.45,74.14a.82.82,0,0,0,.15-.47q0-.65,0-1.29A.83.83,0,0,0,34,72.3c0,.45,0,.91,0,1.36a.84.84,0,0,0,.83.84A.82.82,0,0,0,35.45,74.14Z"></path></g><g class="cls-3"><path class="cls-4" d="M45.24,97.53a.82.82,0,0,0-.11-1.07c-.3-.3-.61-.61-.91-.93A.83.83,0,1,0,43,96.68c.31.33.63.65,1,1a.82.82,0,0,0,1.17,0Z"></path><path class="cls-4" d="M93.33,94.29a.83.83,0,1,1-1.31-1c.54-.69,1-1.41,1.54-2.16a.84.84,0,0,1,1.15-.24A.83.83,0,0,1,95,92l-.64,1C94,93.42,93.66,93.86,93.33,94.29Zm2.73-5.83a.82.82,0,0,1-.39-1.1c.37-.8.72-1.62,1-2.44a.83.83,0,0,1,1.56.58c-.33.87-.69,1.73-1.09,2.57l-.07.12A.83.83,0,0,1,96.06,88.46Zm-5.75,9.21c-.66.64-1.36,1.27-2.08,1.86a.83.83,0,0,1-1-1.29c.68-.56,1.34-1.15,2-1.76a.83.83,0,0,1,1.26,1.07Zm8.25-15.88a.84.84,0,0,1-.63-1q.3-1.29.48-2.61a.82.82,0,0,1,.94-.7.83.83,0,0,1,.71.93c-.13.92-.3,1.84-.5,2.75a.84.84,0,0,1-1,.63Zm-14,20.36c-.78.49-1.6.94-2.43,1.36a.83.83,0,0,1-1.12-.37.82.82,0,0,1,.37-1.11c.79-.4,1.57-.83,2.31-1.29a.83.83,0,0,1,1.12,1.18A.79.79,0,0,1,84.54,102.15Zm-6.61,3.12c-.87.3-1.77.56-2.67.79a.83.83,0,0,1-.41-1.61c.86-.22,1.71-.47,2.54-.76a.84.84,0,0,1,1.06.52.83.83,0,0,1-.11.75A.85.85,0,0,1,77.93,105.27Zm-7.13,1.59c-.92.11-1.86.17-2.78.2a.84.84,0,0,1,0-1.67c.88,0,1.77-.08,2.65-.18a.83.83,0,0,1,.91.74.8.8,0,0,1-.14.57A.82.82,0,0,1,70.8,106.86Zm-7.31,0c-.92-.1-1.85-.25-2.76-.42a.84.84,0,0,1,.32-1.64c.86.17,1.74.31,2.62.41a.83.83,0,0,1,.74.91.84.84,0,0,1-.92.74Zm-7.14-1.61c-.87-.3-1.75-.64-2.6-1a.83.83,0,0,1-.42-1.1.84.84,0,0,1,1.1-.43c.8.36,1.63.69,2.46,1a.83.83,0,1,1-.54,1.57Zm-6.6-3.12c-.58-.36-1.16-.74-1.72-1.13l-.6-.43a.81.81,0,0,1-.17-1.16.83.83,0,0,1,1.16-.18l.57.41c.53.37,1.08.73,1.63,1.07a.83.83,0,0,1,.27,1.14l0,0A.83.83,0,0,1,49.75,102.14Z"></path><path class="cls-4" d="M100.21,74.35a.81.81,0,0,0,.16-.48c0-.45,0-.91,0-1.36a.84.84,0,0,0-.87-.8.83.83,0,0,0-.79.86c0,.44,0,.87,0,1.3a.83.83,0,0,0,.83.83A.82.82,0,0,0,100.21,74.35Z"></path></g><path class="cls-4" d="M90.15,64.26a.4.4,0,0,0-.36-.28l-4.72-.28A20.73,20.73,0,0,0,81,58.45l.84-4.65a.4.4,0,0,0-.19-.41l-4.95-2.77a.38.38,0,0,0-.45,0l-3.53,3.15A20.54,20.54,0,0,0,66,53l-2.69-3.89a.37.37,0,0,0-.42-.15l-5.47,1.53a.4.4,0,0,0-.28.35l-.27,4.72a20.43,20.43,0,0,0-5.25,4.13L47,58.87a.38.38,0,0,0-.41.19L43.82,64a.39.39,0,0,0,0,.45L47,68a20.88,20.88,0,0,0-.79,6.63l-3.88,2.7a.38.38,0,0,0-.16.42l1.54,5.46a.36.36,0,0,0,.35.28l4.72.28A21,21,0,0,0,52.91,89l-.84,4.65a.4.4,0,0,0,.19.41l5,2.77a.38.38,0,0,0,.45,0l3.53-3.15a20.26,20.26,0,0,0,6.63.79l2.69,3.89a.38.38,0,0,0,.43.15l5.46-1.53a.4.4,0,0,0,.28-.35L77,91.87a20.55,20.55,0,0,0,5.24-4.13l4.65.85a.4.4,0,0,0,.41-.2L90,83.45A.39.39,0,0,0,90,83l-3.14-3.53a20.57,20.57,0,0,0,.79-6.63l3.89-2.7a.4.4,0,0,0,.15-.42Z"></path><path class="cls-5" d="M71.07,77.65a5.7,5.7,0,0,1-8.06.21,5.7,5.7,0,0,1-.22-8.06A5.7,5.7,0,0,1,71.6,77,6.54,6.54,0,0,1,71.07,77.65Zm-8.51-3.81a4.38,4.38,0,1,0,1.2-3.12,3.89,3.89,0,0,0-.41.5A4.27,4.27,0,0,0,62.56,73.84Z"></path><path class="cls-5" d="M78.27,81.83A13.93,13.93,0,0,0,79,80.61h0c.07-.13.15-.26.22-.4a14.4,14.4,0,0,0,.87-2.07v0l0-.08a1,1,0,0,1,0-.16.33.33,0,0,0-.13-.37l-.09,0a.35.35,0,0,0-.42.22,13.17,13.17,0,0,1-1.12,2.62,13.37,13.37,0,0,1-18.19,5.1,12.57,12.57,0,0,1-1.16-.73,13.34,13.34,0,0,1-3.94-17.45A13.37,13.37,0,0,1,73.35,62.1c.4.22.78.47,1.15.72a13.35,13.35,0,0,1,3.9,4.29.52.52,0,0,0,.1.11.33.33,0,0,0,.36,0,.33.33,0,0,0,.12-.45,14,14,0,0,0-4.1-4.5c-.39-.27-.79-.53-1.2-.76a14,14,0,0,0-20.37,16,14,14,0,0,0,25,4.29Z"></path><g class="cls-3"><path class="cls-4" d="M123.38,39.33a.51.51,0,0,0,0-.62c-.27-.34-.56-.68-.85-1a.51.51,0,0,0-.72,0,.52.52,0,0,0,0,.73c.28.31.55.63.81,1a.51.51,0,0,0,.72.08Z"></path><path class="cls-4" d="M120.61,36.52a.51.51,0,0,1-.72,0c-.54-.47-1.11-.91-1.7-1.33l-.37-.25a.52.52,0,0,1-.14-.72.54.54,0,0,1,.71-.14l.39.27a21.79,21.79,0,0,1,1.78,1.39.52.52,0,0,1,.09.69Zm-5-2.85a21.2,21.2,0,0,0-2.4-1,.51.51,0,0,1-.3-.66.5.5,0,0,1,.65-.3A20.62,20.62,0,0,1,116,32.75a.52.52,0,0,1,.23.69l0,.06A.52.52,0,0,1,115.57,33.67Zm-4.9-1.77a22.2,22.2,0,0,0-2.57-.42.5.5,0,0,1-.46-.56.5.5,0,0,1,.56-.46,22.66,22.66,0,0,1,2.7.44.51.51,0,0,1,.38.61.37.37,0,0,1-.08.18A.49.49,0,0,1,110.67,31.9Zm-5.18-.51a20.58,20.58,0,0,0-2.6.23.51.51,0,0,1-.58-.43.52.52,0,0,1,.43-.59,24.75,24.75,0,0,1,2.72-.24.52.52,0,0,1,.44.81A.5.5,0,0,1,105.49,31.39Zm-5.15.77a21.67,21.67,0,0,0-2.46.85.51.51,0,0,1-.67-.27.52.52,0,0,1,.27-.68,25.5,25.5,0,0,1,2.59-.89.52.52,0,0,1,.63.36.5.5,0,0,1-.08.43A.45.45,0,0,1,100.34,32.16Zm-4.8,2a21.46,21.46,0,0,0-2.18,1.42.51.51,0,1,1-.62-.82A23,23,0,0,1,95,33.27a.51.51,0,0,1,.7.19.52.52,0,0,1,0,.55A.57.57,0,0,1,95.54,34.16Zm-4.17,3.11a20.13,20.13,0,0,0-1.77,1.92.51.51,0,0,1-.72.07.52.52,0,0,1-.08-.72,22.13,22.13,0,0,1,1.86-2,.51.51,0,0,1,.72,0,.52.52,0,0,1,.05.65Zm-5.21,6.58a.51.51,0,0,1-.25-.68A22.31,22.31,0,0,1,87,41.07l.19-.31a.5.5,0,0,1,.7-.16.52.52,0,0,1,.17.71l-.18.29a22.62,22.62,0,0,0-1.07,2,.22.22,0,0,1,0,.08A.5.5,0,0,1,86.16,43.85Z"></path></g><g class="cls-3"><path class="cls-4" d="M124,65.54a21.39,21.39,0,0,1-1.7,2.08.52.52,0,0,1-.73,0,.51.51,0,0,1,0-.72,22.1,22.1,0,0,0,1.63-2,.51.51,0,0,1,.83.6Zm.74-2.07a.53.53,0,0,1-.2-.7,19.61,19.61,0,0,0,1.11-2.31.51.51,0,1,1,1,.39,24.4,24.4,0,0,1-1.16,2.42l0,0A.51.51,0,0,1,124.72,63.47Zm-4.39,6a22.29,22.29,0,0,1-2.15,1.61.51.51,0,0,1-.71-.15.51.51,0,0,1,.14-.71,20.73,20.73,0,0,0,2.06-1.53.5.5,0,0,1,.72.06.51.51,0,0,1,0,.63A.38.38,0,0,1,120.33,69.48Zm6.48-10.82a.51.51,0,0,1-.36-.63,21.63,21.63,0,0,0,.51-2.52.51.51,0,0,1,.58-.43.52.52,0,0,1,.44.58,23.58,23.58,0,0,1-.54,2.63.53.53,0,0,1-.08.17A.53.53,0,0,1,126.81,58.66Zm-11,13.76a20.5,20.5,0,0,1-2.47,1,.51.51,0,0,1-.66-.31.53.53,0,0,1,.32-.66,20.29,20.29,0,0,0,2.36-1,.52.52,0,0,1,.69.24.53.53,0,0,1,0,.52A.53.53,0,0,1,115.84,72.42Zm-5.06,1.78a23.74,23.74,0,0,1-2.66.42.51.51,0,1,1-.1-1,22,22,0,0,0,2.54-.4.51.51,0,0,1,.53.79A.49.49,0,0,1,110.78,74.2Zm-5.35.51a22,22,0,0,1-2.68-.23.51.51,0,1,1,.15-1,22.11,22.11,0,0,0,2.56.22.51.51,0,0,1,.5.52.55.55,0,0,1-.09.29A.52.52,0,0,1,105.43,74.71Z"></path><path class="cls-4" d="M128.1,53.24a.48.48,0,0,0,.09-.29c0-.44,0-.88,0-1.31a.53.53,0,0,0-.54-.49.51.51,0,0,0-.49.53c0,.41,0,.83,0,1.25a.53.53,0,0,0,.51.53A.54.54,0,0,0,128.1,53.24Z"></path></g><path class="cls-4" d="M121.4,46.12a.27.27,0,0,0-.24-.19L118,45.74a13.85,13.85,0,0,0-2.76-3.51l.57-3.11a.25.25,0,0,0-.13-.27L112.37,37a.26.26,0,0,0-.3,0l-2.36,2.1a13.75,13.75,0,0,0-4.44-.52L103.47,36a.27.27,0,0,0-.29-.1l-3.65,1a.26.26,0,0,0-.19.23l-.18,3.16a13.94,13.94,0,0,0-3.52,2.76l-3.11-.56a.25.25,0,0,0-.27.13L90.4,46a.27.27,0,0,0,0,.3l2.11,2.36A13.45,13.45,0,0,0,92,53.05l-2.6,1.8a.25.25,0,0,0-.11.28l1,3.66a.27.27,0,0,0,.24.19l3.15.18a13.55,13.55,0,0,0,2.77,3.51l-.57,3.11a.27.27,0,0,0,.13.28l3.31,1.86a.26.26,0,0,0,.3,0l2.36-2.1a14,14,0,0,0,4.44.53l1.8,2.6a.26.26,0,0,0,.28.1l3.66-1a.27.27,0,0,0,.19-.24l.18-3.16a13.51,13.51,0,0,0,3.51-2.76l3.12.57a.27.27,0,0,0,.27-.13L121.33,59a.27.27,0,0,0,0-.3l-2.11-2.37a13.39,13.39,0,0,0,.53-4.43l2.6-1.8a.27.27,0,0,0,.1-.29Z"></path><path class="cls-5" d="M108.68,55.13a3.89,3.89,0,1,1,1.07-2.78,3.93,3.93,0,0,1-.7,2.33A3.84,3.84,0,0,1,108.68,55.13Zm-4.78-.6a2.86,2.86,0,0,0,4-.11h0a2.87,2.87,0,0,0,.78-2,2.86,2.86,0,0,0-4.93-1.89,2.69,2.69,0,0,0-.27.32A2.87,2.87,0,0,0,103.9,54.53Z"></path><path class="cls-5" d="M113.7,58c.18-.27.36-.55.52-.84a9.93,9.93,0,0,0,.79-1.8l0-.09a.5.5,0,0,0-.19-.57l-.15-.07a.52.52,0,0,0-.64.34,8.14,8.14,0,0,1-.73,1.69h0a.41.41,0,0,1,0,.09,8.49,8.49,0,0,1-2.94,3,8.85,8.85,0,0,1-2.13.94h-.08a8.57,8.57,0,0,1-6.57-.78q-.39-.23-.75-.48A8.64,8.64,0,0,1,110,44.93a8.35,8.35,0,0,1,.74.47,8.5,8.5,0,0,1,2.53,2.77.61.61,0,0,0,.15.17.52.52,0,0,0,.55,0,.51.51,0,0,0,.19-.7,9.55,9.55,0,0,0-2.83-3.1,9,9,0,0,0-.83-.53,9.68,9.68,0,0,0-14,11,9.56,9.56,0,0,0,3.74,5.29,9.13,9.13,0,0,0,.84.53A9.7,9.7,0,0,0,113.7,58Z"></path><path class="cls-6" d="M191.3,47.48v204.2a4.25,4.25,0,0,1-1.47,3.31,3.82,3.82,0,0,1-2.58.9l-2.24-.08a4.64,4.64,0,0,1-4.3-4.52V47.83Z"></path><path class="cls-7" d="M195.56,40.15a10.15,10.15,0,0,1-4.39,8.35,9.38,9.38,0,0,1-7.83,1.38,8.93,8.93,0,0,1-1.84-.73l-.43-.25a9.37,9.37,0,0,1-4.49-8.11,10,10,0,0,1,9.45-10A9.23,9.23,0,0,1,195.56,40.15Z"></path><path class="cls-8" d="M191.2,39.8a7.9,7.9,0,0,1-3.41,6.49,7.54,7.54,0,0,1-4,1.32,7.18,7.18,0,0,1-2.09-.25,7.72,7.72,0,0,1-1.43-.56l-.34-.2a7.28,7.28,0,0,1-3.49-6.31,7.78,7.78,0,0,1,7.35-7.8A7.18,7.18,0,0,1,191.2,39.8Z"></path><path class="cls-9" d="M114.78,54.78l.81.42L131,45.76,206.41,56.9,217,58.11l-.62,2c-.08.21-12.09,9-12.09,9L213.6,81.3l-.45,1.26a.33.33,0,0,1-.35.22l-9.7-1.51L127.64,69.58a1,1,0,0,1-.56-.29l-12.14-12.7a.87.87,0,0,1-.22-.64Z"></path><path class="cls-10" d="M131.85,44.93,217,58.11a.1.1,0,0,1,0,.17l-12,8.77a.39.39,0,0,0-.09.52l8.57,13.55a.09.09,0,0,1-.08.15l-85.17-13.2a1.1,1.1,0,0,1-.65-.33L114.89,54.89a.13.13,0,0,1,0-.19l16.17-9.62A1.09,1.09,0,0,1,131.85,44.93Z"></path><path class="cls-11" d="M122.19,134.37l.86.22,12.37-12.48,73.75-6.75,9.84-1.23a.32.32,0,0,1,.37.34l-.08,1.61c0,.22-9.39,11.26-9.39,11.26l11.63,9.46-.13,1.3a.32.32,0,0,1-.28.28l-9.5.81-73.91,6.25a.92.92,0,0,1-.6-.15l-14.37-9.24a.88.88,0,0,1-.36-.55Z"></path><path class="cls-4" d="M136,121.13l83.13-7a.19.19,0,0,1,.16.31l-9.15,10.88a.37.37,0,0,0,0,.51l11.21,10.86a.09.09,0,0,1-.05.16l-83.42,7.06a1.13,1.13,0,0,1-.69-.17l-14.93-9.26a.12.12,0,0,1,0-.18l13-12.82A1.16,1.16,0,0,1,136,121.13Z"></path><rect class="cls-12" x="138.58" y="125.44" width="47.1" height="2.76" rx="1.38" transform="translate(-9.39 13.02) rotate(-4.47)"></rect><rect class="cls-12" x="138.99" y="132.88" width="46.72" height="2.62" rx="0.31" transform="translate(-9.96 13.06) rotate(-4.47)"></rect><path class="cls-13" d="M256.37,92.71l-.9.36L240,83l-80.8,6.2-11.25.64.45,1.76c.08.21,12.08,9.45,12.08,9.45l-10.92,11.27.38,1.25a.34.34,0,0,0,.35.23l10.39-.87,80.89-6.72a1.1,1.1,0,0,0,.62-.25L256,94.45a.8.8,0,0,0,.3-.6Z"></path><path class="cls-14" d="M239.11,82.17l-91.05,7.56A.16.16,0,0,0,148,90L159.8,99.1a.37.37,0,0,1,.06.51l-10.21,12.56a.09.09,0,0,0,.08.15L241,104.74a1.27,1.27,0,0,0,.71-.28l14.51-11.65a.11.11,0,0,0,0-.18L239.91,82.36A1.23,1.23,0,0,0,239.11,82.17Z"></path><rect class="cls-12" x="192.1" y="89.95" width="46.01" height="2.85" rx="1.42" transform="translate(-6.47 17.04) rotate(-4.47)"></rect><rect class="cls-12" x="192.53" y="97.62" width="45.65" height="2.7" rx="1.35" transform="translate(-7.06 17.08) rotate(-4.47)"></rect><circle class="cls-15" cx="185.99" cy="65.6" r="3.23"></circle><circle class="cls-16" cx="186.21" cy="65.09" r="1.98"></circle><circle class="cls-17" cx="185.48" cy="98.43" r="3.11"></circle><circle class="cls-18" cx="185.69" cy="97.94" r="1.91"></circle><circle class="cls-19" cx="185.67" cy="127.88" r="3.23"></circle><circle class="cls-20" cx="185.89" cy="127.37" r="1.98"></circle><rect class="cls-12" x="134.54" y="54.61" width="42.55" height="2.64" rx="1.32" transform="translate(10.62 -23.6) rotate(8.97)"></rect><rect class="cls-12" x="133.3" y="61.56" width="42.21" height="2.5" rx="1.25" transform="translate(11.68 -23.3) rotate(8.97)"></rect><path class="cls-21" d="M116.57,152.56c-25.63-.67-54,6.22-54,6.22C55.83,196,58.8,238.17,60,250.93a5.33,5.33,0,0,0,4.36,4.76c13.25,2.44,27.22,1,34.25-.11a6.65,6.65,0,0,0,5.5-5.18C108.7,228.78,122,181.1,122,181.1a84.55,84.55,0,0,0,31.44-9.65c-6.41-7.58-9.38-17.17-10.65-22.83A85.93,85.93,0,0,1,116.57,152.56Z"></path><path class="cls-22" d="M192.66,115.52c-2.49-3.06-4.83-2.93-4.83-2.93-3.92,15.9-24.69,29.91-45.07,36,1.27,5.66,4.24,15.25,10.65,22.83C187.32,152.81,192.66,115.52,192.66,115.52Z"></path><path class="cls-23" d="M192,116.29c.26.84-2.81,2.09-4.57-1.36-.05-1.64-1-8.68,0-10C192.78,97.84,203,89,203,89a2.42,2.42,0,0,1,.27,3.35l-5,5.07c1,1.87,2.25,3.45,2.82,5.7a6.87,6.87,0,0,1-.74,5.07,59.41,59.41,0,0,1-3.2,5.12A6.78,6.78,0,0,1,192,116.29Z"></path><path class="cls-24" d="M196.12,100.74l-4.51,3.75-1.45,3.77,4,4.47s1.41-7.49,2.42-9.11S197.05,101.22,196.12,100.74Z"></path><path class="cls-21" d="M72.18,183.7l-9.6-24.92s-24.1,16-28.23,36.63a56.87,56.87,0,0,1,20.76,5.78C57,191.47,72.18,183.7,72.18,183.7Z"></path><path class="cls-25" d="M92.88,207.26s-27,14.94-36,1.87a10.21,10.21,0,0,1-1.79-7.94,56.87,56.87,0,0,0-20.76-5.78A28.46,28.46,0,0,0,37.25,215c15.62,29.22,59.13-1,59.13-1Z"></path><path class="cls-26" d="M90.8,131.5,82.42,155a.85.85,0,0,0,.38,1c2.21,1.25,10.19,4.88,19.9-1.15a4,4,0,0,0,1.87-2.84l2.84-20.39Z"></path><path class="cls-27" d="M108.76,109.82s8.8,17,7.58,23.75-12.31,6.21-22,.58l-6.6-18.27Z"></path><path class="cls-28" d="M94.91,125.22a.71.71,0,0,0,.31-1,18,18,0,0,1-2.44-5.31s-1.6-1,4.12-2.36,14.25-3.35,16.09-8.2-2.68-16.68-10.08-7.25a.7.7,0,0,1-1.11,0c-1.18-1.57-4.3-4.84-8.7-2.91C89,100,88.5,103,88.54,104.46a.68.68,0,0,1-.82.7c-2.07-.41-7-.8-9.4,4.28-1.95,4.18-.73,6.57.39,7.74a.7.7,0,0,1-.31,1.15c-1.37.4-3.13,1.54-3,4.73.2,4.41,5.13,4.07,6.54,3.88a.69.69,0,0,1,.61.22c1.19,1.34,6.56,7.05,12.42,7.79a.7.7,0,0,0,.74-.92l-2.46-7.41a.69.69,0,0,1,.38-.86Z"></path><path class="cls-29" d="M95.92,126.27s-6.34-4.43-6.84-.75,5.69,5.39,8.78,4Z"></path><path class="cls-30" d="M87.36,230.87l14.72-51.43a1.51,1.51,0,0,1,1.27-1.08c2.67-.31,10.4-1.18,19.33-1.94,10.75-.91,23.23-1.64,30.69-1a1.5,1.5,0,0,1,1.23,2.17c-4.24,8.58-21.69,43.5-30.43,54.94a1.49,1.49,0,0,1-1.21.59l-34.17-.32A1.5,1.5,0,0,1,87.36,230.87Z"></path><path class="cls-31" d="M90.92,218.44s-2-8.43-1.23-11.43,2.43-6.84,7.78-6a77.24,77.24,0,0,1,11.64,3.11s-.31,3.89-4.38,2.64l2.52,1.94s-.36,3.13-3.79,1.46l2.34,2.58a2.72,2.72,0,0,1-4,.92C99.28,212,98.07,219.46,90.92,218.44Z"></path><path class="cls-4" d="M121.7,191.77a4.32,4.32,0,1,0,4.32-4.32A4.32,4.32,0,0,0,121.7,191.77Z"></path><path class="cls-5" d="M103.75,194.62l3-10.17a3.5,3.5,0,0,1,2.62-2.45c9.4-2,35.11-2.37,35.37-2.38v-1.14c-1.06,0-26.09.42-35.6,2.4a4.62,4.62,0,0,0-3.48,3.25l-3,10.17Z"></path><path class="cls-4" d="M190.18,255.58a1.1,1.1,0,0,1-.74-.48c-2.56-3.68-21.06-32.45,5.59-57.35,25.3-23.65,36.58-28.31,38.51-42.61a1.68,1.68,0,0,1,3.2-.47c5.21,11.47,13,38.1-16.23,54.48-32.3,18.06-30.37,39.06-29,45a1.14,1.14,0,0,1-1.3,1.38Z"></path><path class="cls-4" d="M194.1,256.24a1.63,1.63,0,0,1-1.36-1.42c-.6-4.92-1.88-23.27,11.76-27.69,15-4.87,26.54,9.33,37.79-1.13a.82.82,0,0,1,1.37.77c-1.15,5.61-5.89,18.56-25.21,20.58-20.67,2.16-23.07,4.44-22.74,7.39a1.38,1.38,0,0,1-1.61,1.5Z"></path><path class="cls-32" d="M232.2,169.7a22.16,22.16,0,0,1-1.16,3c-.45,1-.94,1.89-1.47,2.8s-1.1,1.8-1.72,2.66-1.25,1.71-1.92,2.52a45.72,45.72,0,0,1-9.39,8.5,61.43,61.43,0,0,1-5.43,3.26,47.49,47.49,0,0,0-5.25,3.28,52.81,52.81,0,0,0-9.17,8.31,49.21,49.21,0,0,0-6.89,10.27,42.38,42.38,0,0,0-4.27,24.1,50.59,50.59,0,0,0,3,12.07.21.21,0,0,1-.12.28.23.23,0,0,1-.28-.12,49,49,0,0,1-3.35-12.14,43,43,0,0,1-.4-6.32,41.79,41.79,0,0,1,.56-6.31,43.68,43.68,0,0,1,3.84-12,49,49,0,0,1,7-10.56,54.53,54.53,0,0,1,9.34-8.55,51.51,51.51,0,0,1,5.37-3.38l1.37-.75c.46-.24.9-.51,1.35-.77l.67-.39.65-.42.66-.41.64-.43a50,50,0,0,0,4.92-3.76,44.27,44.27,0,0,0,4.41-4.36,42.93,42.93,0,0,0,3.76-4.92,30.62,30.62,0,0,0,2.89-5.49h0a.2.2,0,0,1,.26-.11A.21.21,0,0,1,232.2,169.7Z"></path><path class="cls-32" d="M193.48,252.89a2.9,2.9,0,0,0,0-.51v-.5c0-.34,0-.67,0-1,0-.67.06-1.34.12-2,.11-1.33.27-2.67.5-4a29.8,29.8,0,0,1,2.31-7.71,17.11,17.11,0,0,1,2.14-3.45,12.26,12.26,0,0,1,3-2.7,10.7,10.7,0,0,1,3.82-1.42,11.53,11.53,0,0,1,2-.19,17.43,17.43,0,0,1,2,.11c.68.09,1.33.21,2,.32l2,.35c1.32.24,2.63.49,3.95.75,2.62.52,5.24,1.09,7.86,1.58,1.32.24,2.63.45,3.95.58a18.74,18.74,0,0,0,4,0A10,10,0,0,0,237,232a12.33,12.33,0,0,0,3.09-2.44.18.18,0,0,1,.25,0,.16.16,0,0,1,0,.24,12.78,12.78,0,0,1-3.16,2.55,10.38,10.38,0,0,1-3.87,1.23,19.67,19.67,0,0,1-4.06,0c-1.34-.13-2.67-.35-4-.58-2.64-.48-5.25-1-7.88-1.56s-5.26-1-7.88-1.39a13.13,13.13,0,0,0-2-.13,11.61,11.61,0,0,0-2,.17,10.09,10.09,0,0,0-3.67,1.34,11.71,11.71,0,0,0-3,2.58,17.05,17.05,0,0,0-2.11,3.35,29.36,29.36,0,0,0-2.36,7.59c-.24,1.31-.41,2.64-.53,4-.06.66-.11,1.33-.14,2,0,.34,0,.67,0,1v.5a2.07,2.07,0,0,0,0,.5.15.15,0,1,1-.29.08A.08.08,0,0,1,193.48,252.89Z"></path></svg>