<svg xmlns="http://www.w3.org/2000/svg" viewBox="0 0 500 500"><defs><style>.cls-1{fill:#dee4f7;}.cls-2{fill:#f5f5f5;}.cls-13,.cls-3{fill:#263238;}.cls-4{fill:#407bff;}.cls-10,.cls-14,.cls-15,.cls-16,.cls-5{fill:#fff;}.cls-5{opacity:0.6;}.cls-13,.cls-6,.cls-9{opacity:0.3;}.cls-7{fill:#ffb573;}.cls-15,.cls-17,.cls-8{opacity:0.2;}.cls-11{fill:#ed893e;}.cls-12{fill:#b53546;}.cls-14{opacity:0.1;}.cls-16{opacity:0.7;}.cls-18{fill:#66a5a3;}.cls-19{fill:#75b5b5;}.cls-20{fill:#92d1cf;}</style></defs><g id="Background_Simple" data-name="Background Simple"><path class="cls-1" d="M354.74,78.9s28.38,5.26,39,17.11-21.38-8.56-41.66-8.2S342.2,77,354.74,78.9Z"></path><path class="cls-1" d="M103.8,167.35S65.64,213,66,256.31s-28.71-27.83,18.13-91.26S103.8,167.35,103.8,167.35Z"></path><path class="cls-1" d="M408.67,135.32c8.74,22.61-40.65,2.65-63,26.19-28.95,30.5,2.16,81.8,33.38,112.4,19.78,19.38,87.12,67.15-5.94,67.5-66.77.25-232.15-81.81-205.36-10.22,39.74,106.19-116,35.7-90.25-91.87C99.92,128.53,369,32.76,408.67,135.32Z"></path><path class="cls-1" d="M62.84,276.87c-1.82,4.28.13,14.38,3.77,15.63s2.45-7.22,1.87-9.48C67.45,279.06,64.66,272.6,62.84,276.87Z"></path><path class="cls-1" d="M400.1,100.92s7.84,4.86,7.49,8.33-5.5-1.18-7-2.74C398.76,104.53,397.24,99.78,400.1,100.92Z"></path></g><g id="Shadow"><ellipse id="_Path_" data-name="&lt;Path&gt;" class="cls-2" cx="250" cy="416.24" rx="193.89" ry="11.32"></ellipse></g><g id="Character"><rect class="cls-3" x="226.31" y="298.36" width="91.19" height="9.22" rx="2.93"></rect><polygon class="cls-4" points="313.76 410.24 317.5 410.24 313.2 307.58 308.02 307.58 313.76 410.24"></polygon><polygon class="cls-5" points="313.76 410.24 317.5 410.24 313.2 307.58 308.02 307.58 313.76 410.24"></polygon><polygon class="cls-4" points="279.33 410.24 275.59 410.24 279.89 307.58 285.07 307.58 279.33 410.24"></polygon><polygon class="cls-5" points="279.33 410.24 275.59 410.24 279.89 307.58 285.07 307.58 279.33 410.24"></polygon><polygon class="cls-4" points="264.49 410.24 268.23 410.24 263.92 307.58 258.75 307.58 264.49 410.24"></polygon><polygon class="cls-5" points="264.49 410.24 268.23 410.24 263.92 307.58 258.75 307.58 264.49 410.24"></polygon><polygon class="cls-4" points="230.05 410.24 226.31 410.24 230.62 307.58 235.79 307.58 230.05 410.24"></polygon><polygon class="cls-5" points="230.05 410.24 226.31 410.24 230.62 307.58 235.79 307.58 230.05 410.24"></polygon><g class="cls-6"><polygon class="cls-4" points="313.2 307.57 308.02 307.57 308.26 311.94 313.38 311.94 313.2 307.57"></polygon><polygon class="cls-4" points="279.71 311.94 284.82 311.94 285.07 307.57 279.89 307.57 279.71 311.94"></polygon><polygon class="cls-4" points="258.75 307.57 258.99 311.94 264.11 311.94 263.92 307.57 258.75 307.57"></polygon><polygon class="cls-4" points="230.43 311.94 235.56 311.94 235.8 307.57 230.62 307.57 230.43 311.94"></polygon></g><polygon class="cls-7" points="262.08 395.15 253.62 399.65 240.28 381.64 248.75 377.14 262.08 395.15"></polygon><path class="cls-3" d="M250.56,396.87l8.84-6.14a.68.68,0,0,1,1,.13l5.29,6.69a1.71,1.71,0,0,1-.41,2.36c-3.11,2.08-4.51,2.81-8.58,5.23-2.51,1.48-8.51,5-12.2,6.61s-5.17-2.09-3.75-3.1c3.37-2.38,7.83-7.06,8.84-10.35A2.67,2.67,0,0,1,250.56,396.87Z"></path><polygon class="cls-8" points="248.76 377.15 240.28 381.64 246.71 390.32 254.99 385.56 248.76 377.15"></polygon><path class="cls-4" d="M269.19,270.47s-65.74-2.05-66,25.42c-.32,39.48,37.15,91.33,37.15,91.33L255,377.47s-25.68-37.69-25.9-68.51c19.37-5.47,65-2,70.91-18.1,4.84-13.14,2.31-20.39,2.31-20.39Z"></path><path class="cls-8" d="M269.19,270.47s-65.74-2.05-66,25.42c-.32,39.48,37.15,91.33,37.15,91.33L255,377.47s-25.68-37.69-25.9-68.51c19.37-5.47,65-2,70.91-18.1,4.84-13.14,2.31-20.39,2.31-20.39Z"></path><polygon class="cls-3" points="258.98 379.98 241.54 390.66 236.07 385.11 255.23 373.04 258.98 379.98"></polygon><path class="cls-4" d="M248.73,400.18a11.2,11.2,0,0,0,1.9-1.74.22.22,0,0,0-.17-.37c-.37,0-3.65,0-4.35,1.07a.85.85,0,0,0-.07.82,1.23,1.23,0,0,0,.92.83A2.62,2.62,0,0,0,248.73,400.18Zm1.21-1.65c-1.21,1.26-2.28,1.93-2.9,1.82a.77.77,0,0,1-.58-.56.38.38,0,0,1,0-.4C246.86,398.83,248.63,398.58,249.94,398.53Z"></path><path class="cls-4" d="M250.59,398.48a.27.27,0,0,0,.07-.08.22.22,0,0,0,0-.22c-.06-.1-1.46-2.48-2.78-2.7a1.14,1.14,0,0,0-1,.29.85.85,0,0,0-.28,1c.42,1,2.73,1.81,3.84,1.74ZM247.3,396a.66.66,0,0,1,.51-.12c.79.13,1.75,1.38,2.25,2.14-1.09-.1-2.73-.8-3-1.45-.05-.12-.08-.29.17-.51C247.25,396.08,247.27,396.05,247.3,396Z"></path><polygon class="cls-7" points="246.43 406.19 236.93 405.74 235.37 383.31 244.87 383.76 246.43 406.19"></polygon><path class="cls-3" d="M236.71,404.12l10.75-.34a.69.69,0,0,1,.74.63l.79,8.49a1.7,1.7,0,0,1-1.63,1.76c-3.74,0-5.54-.11-10.27,0-2.91.09-8.63.52-12.62,0s-3.38-4.43-1.65-4.58c4.11-.33,9.62-3.17,12.26-5.38A2.69,2.69,0,0,1,236.71,404.12Z"></path><path class="cls-4" d="M233.37,405.89a11.71,11.71,0,0,0,2.54-.42.22.22,0,0,0,.06-.4c-.31-.2-3.08-2-4.23-1.48a.85.85,0,0,0-.5.65,1.23,1.23,0,0,0,.31,1.2A2.56,2.56,0,0,0,233.37,405.89Zm1.91-.72c-1.7.39-3,.38-3.42-.05a.82.82,0,0,1-.19-.79.4.4,0,0,1,.24-.32C232.53,403.74,234.15,404.49,235.28,405.17Z"></path><path class="cls-4" d="M235.86,405.48a.19.19,0,0,0,.1,0,.21.21,0,0,0,.11-.18c0-.12.14-2.88-.86-3.78a1.1,1.1,0,0,0-1-.28.85.85,0,0,0-.79.7c-.19,1,1.3,3,2.27,3.54A.27.27,0,0,0,235.86,405.48Zm-1.43-3.84a.63.63,0,0,1,.48.18c.6.54.72,2.11.73,3-.86-.68-1.86-2.16-1.73-2.85,0-.13.09-.29.41-.34Z"></path><polygon class="cls-8" points="244.88 383.76 235.37 383.31 236.26 396.14 245.74 396.13 244.88 383.76"></polygon><path class="cls-4" d="M292.57,270.47s-68.78,6.5-66.28,27.21c3.62,29.86,5.4,94.22,5.4,94.22l17.53.69s7.43-58,3.59-88.63c17.8,0,61.38,1.28,65.35-9.44,3.51-9.48,2.26-24,2.26-24Z"></path><polygon class="cls-3" points="251.16 393.67 230.12 392.63 229.36 383.47 252.44 385.06 251.16 393.67"></polygon><path class="cls-7" d="M277.31,209.81c-.13,1.68-.26,3.14-.45,4.68s-.39,3-.63,4.56c-.47,3-1.07,6-1.77,9.07a71.77,71.77,0,0,1-6.59,18.22,32.69,32.69,0,0,1-3.09,4.59,20.83,20.83,0,0,1-4.54,4.22,22.69,22.69,0,0,1-11.07,3.74,32,32,0,0,1-10.29-1,40.2,40.2,0,0,1-4.66-1.5c-.76-.29-1.5-.61-2.23-1s-1.41-.71-2.25-1.16l2.63-6.69,1.91.24,2,.2c1.34.11,2.66.18,4,.18a27.67,27.67,0,0,0,7.21-.83,11.85,11.85,0,0,0,5.09-2.65,11.54,11.54,0,0,0,1.66-1.94,23.8,23.8,0,0,0,1.58-2.84,45.89,45.89,0,0,0,2.59-7.11c.76-2.53,1.37-5.18,1.92-7.88s1-5.43,1.45-8.18l.59-4.14c.18-1.36.38-2.82.51-4Z"></path><path class="cls-3" d="M277.37,201.66c-7-6.79-15.7-2.78-19.16,10a118,118,0,0,0-4,20.87l22.27,4.6C280.53,224.94,284.57,208.62,277.37,201.66Z"></path><path class="cls-9" d="M270.2,215.56c1.59-1.43,6.11,5,8.87,12.93-.78,3-1.67,5.89-2.58,8.6l-13.4-2.77C264.16,226.4,266.63,218.78,270.2,215.56Z"></path><path class="cls-7" d="M230.86,244.54l-5-1.91-.22,10.61s8.4,3.63,10.11-.54l-.6-2.65A8.59,8.59,0,0,0,230.86,244.54Z"></path><polygon class="cls-7" points="219.96 242.91 217.01 251.81 225.68 253.24 225.9 242.63 219.96 242.91"></polygon><path class="cls-3" d="M227.52,250a.56.56,0,0,1-.51-.31l-8.93-17.19a.58.58,0,0,1,.24-.78.59.59,0,0,1,.78.25L228,249.13a.58.58,0,0,1-.24.78A.66.66,0,0,1,227.52,250Z"></path><path class="cls-3" d="M276.54,194.85l10.68-3,13.72-.64a9.51,9.51,0,0,1,9.5,6.56c2.61,8,5,19.52,6.77,29.49,2,11.19,3,28,3.21,43.26H269.19c-1.17-31.85-5.22-50.68-7-61.1a9.48,9.48,0,0,1,5.28-10.19Z"></path><path class="cls-9" d="M317.21,227.22c-1.38-7.85-3.16-16.69-5.14-24-9.13-1.54-13.55,18.48-10.84,28.41s17.16,3.91,17.16,3.91C318.05,232.55,317.65,229.74,317.21,227.22Z"></path><path class="cls-3" d="M285.4,171c2.2,5.4.88,15.3-3.46,12.5S284.06,167.72,285.4,171Z"></path><path class="cls-7" d="M283,174.46l-4.15,6.34-5.64,8.63a8.62,8.62,0,0,1,1.74,2.55c1,2.08,1.89,3.63-2.48,6.61a2.91,2.91,0,0,0-1.31,2.86c.26,1.35,1.6,2.66,6.31,1.83a21.65,21.65,0,0,0,11.82-6.56c1.57-1.57,1.21-2.75-.3-4.38C284.67,187.74,283.39,180.39,283,174.46Z"></path><path class="cls-8" d="M274.56,187.3l3.46-6.15q.11.24.24.51A15.71,15.71,0,0,1,279,184c.63,2.73-1.49,6.63-3.82,8.49l-.27-.53a10.8,10.8,0,0,0-1.6-2.45.53.53,0,0,0-.14-.1Z"></path><path class="cls-3" d="M253.79,167c-1.29,2.91,3.28,11.15,8.51,7.82S256.07,161.85,253.79,167Z"></path><path class="cls-10" d="M279,205.05a.29.29,0,0,1-.29-.24c-.38-2.47-2-4-3.83-5.86-2.32-2.27-4.95-4.85-5.81-9.9a.28.28,0,0,1,.56-.1c.84,4.87,3.4,7.38,5.65,9.59,1.85,1.81,3.59,3.52,4,6.18a.28.28,0,0,1-.24.33Z"></path><path class="cls-7" d="M281.13,164.07c2,9.06,3.56,14.27.33,20-4.88,8.67-17.08,7.49-21.72-.85-4.18-7.5-6.67-21.06,1.1-26.91A12.87,12.87,0,0,1,281.13,164.07Z"></path><path class="cls-3" d="M283.82,170.29c-3.12,4.43-11.3-3.7-10.63-9.16-8.12,4.62-16.94,10.79-22.29,5.59-6.18-6-4.49-14.6,2.75-15.37-1.28,2.5,6,3.61,9.87-.25,6.55-6.48,16.9-5.13,16.71.12C285.22,149.24,290.67,160.56,283.82,170.29Z"></path><path class="cls-3" d="M279.27,152.69c1.93-1.44.65-6.57-3.83-8.07C279.7,145.17,284.11,148.34,279.27,152.69Z"></path><path class="cls-7" d="M286.71,169.89a8.48,8.48,0,0,1-1.9,5.71c-1.72,2.05-4.37.42-5-2.14-.55-2.29.16-5.84,2.42-6.94S286.59,167.31,286.71,169.89Z"></path><path class="cls-3" d="M268.13,171.42c.24.73.06,1.47-.42,1.64s-1-.28-1.29-1-.06-1.47.42-1.65S267.89,170.68,268.13,171.42Z"></path><path class="cls-3" d="M259.93,174.42c.25.74.06,1.48-.42,1.65s-1.05-.28-1.29-1-.05-1.47.42-1.64S259.69,173.69,259.93,174.42Z"></path><path class="cls-11" d="M262.74,174a24.9,24.9,0,0,1-.76,6.49c1.47.54,3.09-.73,3.09-.73Z"></path><path class="cls-3" d="M267.13,183.83a6.61,6.61,0,0,0,3.91-3.45.23.23,0,0,0-.12-.3.24.24,0,0,0-.3.13,6.34,6.34,0,0,1-4.45,3.42.23.23,0,1,0,.09.45A6.85,6.85,0,0,0,267.13,183.83Z"></path><path class="cls-3" d="M268.88,168.24a.41.41,0,0,0,.17-.15.46.46,0,0,0-.14-.63,4.34,4.34,0,0,0-4.07-.42.45.45,0,0,0-.22.61.46.46,0,0,0,.61.21,3.47,3.47,0,0,1,3.19.36A.43.43,0,0,0,268.88,168.24Z"></path><path class="cls-3" d="M258.31,169.68a.47.47,0,0,0,0-.23.46.46,0,0,0-.6-.24,4.32,4.32,0,0,0-2.66,3.11.45.45,0,1,0,.89.15,3.45,3.45,0,0,1,2.12-2.42A.46.46,0,0,0,258.31,169.68Z"></path><path class="cls-7" d="M308.67,198c1,1.62,1.8,3.08,2.63,4.64s1.63,3.08,2.41,4.64c1.58,3.11,3,6.31,4.38,9.57s2.59,6.62,3.63,10.12A57.11,57.11,0,0,1,324,238.25a27,27,0,0,1-.23,6.7,14.88,14.88,0,0,1-1.32,4.21,12.69,12.69,0,0,1-3.06,3.94,13.3,13.3,0,0,1-3.86,2.34,17.59,17.59,0,0,1-3.67,1,25,25,0,0,1-6.41.17,38.44,38.44,0,0,1-5.66-.91,54.18,54.18,0,0,1-5.26-1.48,66,66,0,0,1-9.86-4.18l2.53-6.73c6.22,1.18,12.9,2.27,18.51,1.93a15.68,15.68,0,0,0,3.62-.62c1-.3,1.51-.75,1.47-.89s-.06,0-.08-.1,0-.11,0-.62a14.72,14.72,0,0,0-.2-3.36,46,46,0,0,0-2.23-8.37c-1-2.9-2.21-5.83-3.52-8.73s-2.72-5.81-4.15-8.71q-1.08-2.18-2.23-4.31l-2.26-4.19Z"></path><path class="cls-3" d="M304,191.31c-9.66-1.47-14.41,6.82-9.86,19.2a117.34,117.34,0,0,0,8.82,19.33l20.83-9.13C320,208.46,313.88,192.82,304,191.31Z"></path><path class="cls-7" d="M281.84,242.39l-4.46,1.34,6.33,9s9.38-3.36,7.46-7.44l-2.36-1.34C286.79,242.78,284.23,241.57,281.84,242.39Z"></path><polygon class="cls-7" points="273.43 249.93 277.9 254.39 283.71 252.72 277.38 243.73 273.43 249.93"></polygon><ellipse class="cls-10" cx="283.18" cy="171.01" rx="1.44" ry="1.74"></ellipse><polygon class="cls-10" points="284.37 175.61 283.54 175.58 283.03 171.57 284.61 171.22 284.37 175.61"></polygon><path class="cls-10" d="M290.11,251.2c-3,0-5.66-.45-7.27-1.91a5.75,5.75,0,0,1-1.75-4.5A46.28,46.28,0,0,1,283,232.62c1.39-5.45,2.49-9.75-.85-15.06-5.32-8.43-3.73-20.22,0-27.61C285,184.3,284,178,283.64,175.68c-.05-.3-.09-.54-.11-.7a.28.28,0,0,1,.26-.31.29.29,0,0,1,.32.25c0,.15.05.38.09.67.38,2.41,1.37,8.8-1.57,14.62-3.65,7.25-5.21,18.8,0,27,3.47,5.51,2.29,10.14.92,15.5a45.9,45.9,0,0,0-1.87,12,5.18,5.18,0,0,0,1.55,4.08c2.7,2.43,8.66,1.81,14.42,1.21,2.58-.26,5.25-.54,7.6-.54a.29.29,0,1,1,0,.58c-2.32,0-5,.27-7.54.54A75.66,75.66,0,0,1,290.11,251.2Z"></path><rect class="cls-10" x="305.24" y="249.06" width="12.58" height="2" rx="0.6"></rect></g><g id="Desk"><path class="cls-12" d="M388.64,257.72H111.36a3.34,3.34,0,0,1-3.33-3.33h0a3.34,3.34,0,0,1,3.33-3.33H388.64a3.34,3.34,0,0,1,3.33,3.33h0A3.34,3.34,0,0,1,388.64,257.72Z"></path><path class="cls-13" d="M388.64,257.72H323.73a3.34,3.34,0,0,1-3.33-3.33h0a3.34,3.34,0,0,1,3.33-3.33h64.91a3.34,3.34,0,0,1,3.33,3.33h0A3.34,3.34,0,0,1,388.64,257.72Z"></path><polygon class="cls-3" points="385.58 414.62 391.97 414.62 384.62 257.72 375.78 257.72 385.58 414.62"></polygon><polygon class="cls-14" points="385.58 414.62 391.97 414.62 384.62 257.72 375.78 257.72 385.58 414.62"></polygon><polygon class="cls-3" points="326.79 414.62 320.4 414.62 327.75 257.72 336.59 257.72 326.79 414.62"></polygon><polygon class="cls-15" points="326.79 414.62 320.4 414.62 327.75 257.72 336.59 257.72 326.79 414.62"></polygon><polygon class="cls-3" points="173.22 414.62 179.6 414.62 172.25 257.72 163.41 257.72 173.22 414.62"></polygon><polygon class="cls-14" points="173.22 414.62 179.6 414.62 172.25 257.72 163.41 257.72 173.22 414.62"></polygon><polygon class="cls-3" points="114.42 414.62 108.03 414.62 115.38 257.72 124.22 257.72 114.42 414.62"></polygon><polygon class="cls-15" points="114.42 414.62 108.03 414.62 115.38 257.72 124.22 257.72 114.42 414.62"></polygon><rect class="cls-3" x="117.24" y="266.07" width="213.25" height="13.15"></rect><rect class="cls-15" x="117.24" y="266.07" width="213.25" height="13.15"></rect><path class="cls-10" d="M259.92,249.4H218.65a.84.84,0,0,0-.84.83h0a.84.84,0,0,0,.84.83h41.27a.83.83,0,0,0,.83-.83h0A.83.83,0,0,0,259.92,249.4Z"></path><polygon class="cls-3" points="340.66 247.42 367.78 247.42 370.23 250.97 338.21 250.97 340.66 247.42"></polygon><path d="M382.54,186.83a3.65,3.65,0,1,1-3.65-3.65A3.64,3.64,0,0,1,382.54,186.83Z"></path><path class="cls-3" d="M355.12,249.82a1.16,1.16,0,0,1-1.07-1.6l26.13-61.84a1.16,1.16,0,0,1,2.13.9l-26.13,61.83A1.16,1.16,0,0,1,355.12,249.82Z"></path><path class="cls-3" d="M381.24,188a1.19,1.19,0,0,1-.69-.23L333.1,152.18a1.15,1.15,0,0,1,1.38-1.84l47.46,35.57a1.16,1.16,0,0,1-.7,2.08Z"></path><path class="cls-3" d="M384.89,186.83a3.65,3.65,0,1,1-3.65-3.65A3.64,3.64,0,0,1,384.89,186.83Z"></path><circle class="cls-3" cx="333.79" cy="151.26" r="3.64"></circle><path class="cls-4" d="M328.69,167.9a8.16,8.16,0,1,1,0-11.54A8.17,8.17,0,0,1,328.69,167.9Z"></path><path class="cls-16" d="M328.69,167.9a8.16,8.16,0,1,1,0-11.54A8.17,8.17,0,0,1,328.69,167.9Z"></path><path class="cls-3" d="M333.79,151.26a17.47,17.47,0,0,0-24.72,0L333.79,176A17.48,17.48,0,0,0,333.79,151.26Z"></path><g class="cls-17"><polygon class="cls-4" points="309.06 151.26 205.24 251.06 311.75 251.06 333.79 175.99 309.06 151.26"></polygon><polygon class="cls-16" points="309.06 151.26 205.24 251.06 311.75 251.06 333.79 175.99 309.06 151.26"></polygon></g><path class="cls-12" d="M150.29,205.64h55s2.9,1.19,2.9,6v35.82l26.14.44L231.05,251l-83,.23V211.6S146.75,205.64,150.29,205.64Z"></path><path class="cls-18" d="M407.55,395.08a23.28,23.28,0,0,1,23.28,23.28H384.27A23.28,23.28,0,0,1,407.55,395.08Z"></path><path class="cls-19" d="M426.36,401.79a16.56,16.56,0,0,1,16.56,16.57H409.8A16.56,16.56,0,0,1,426.36,401.79Z"></path><path class="cls-18" d="M373.91,421.84S366.33,369,443.06,351.2c0,0-17.51,8.72-29.76,34S386.08,419.54,373.91,421.84Z"></path><path class="cls-20" d="M378.82,415c7.93-22.48,26.56-43.12,47-55.15,3-1.83,6.19-3.3,9.31-4.85q-2.11,1.56-4.26,3a171.08,171.08,0,0,0-52,57Z"></path><path class="cls-19" d="M371.89,414.36s-18-40.85,39.73-72.5c0,0-12.13,11-16.29,34.11S381.17,409.76,371.89,414.36Z"></path><path class="cls-20" d="M374.3,407.76c1.1-20.21,11.28-40.68,25.26-55.1,2-2.12,4.3-4,6.5-5.93-.89,1.17-1.78,2.33-2.7,3.46a151.77,151.77,0,0,0-29.06,57.57Z"></path><path class="cls-19" d="M370.18,420.84s8.27-52.75,86.84-47.23c0,0-19.3,3.2-38.43,23.78S382.5,422.22,370.18,420.84Z"></path><path class="cls-20" d="M376.88,415.76c14.18-19.16,38.05-33.43,61.08-38.95,3.38-.86,6.88-1.33,10.32-1.9q-2.47.87-5,1.66a171.23,171.23,0,0,0-66.43,39.19Z"></path></g></svg>